<svg width="331" height="51" viewBox="0 0 331 51" fill="none" xmlns="http://www.w3.org/2000/svg">
<path d="M25.7471 37.5283C25.7471 36.7979 25.6396 36.1426 25.4248 35.5625C25.21 34.9609 24.8125 34.4023 24.2324 33.8867C23.6523 33.3711 22.8145 32.8555 21.7188 32.3398C20.6445 31.8027 19.2266 31.2441 17.4648 30.6641C15.4023 29.9766 13.415 29.2031 11.5029 28.3438C9.59082 27.4629 7.88281 26.4424 6.37891 25.2822C4.875 24.1006 3.68262 22.7256 2.80176 21.1572C1.9209 19.5674 1.48047 17.7197 1.48047 15.6143C1.48047 13.5947 1.93164 11.7793 2.83398 10.168C3.73633 8.53516 4.99316 7.14941 6.60449 6.01074C8.2373 4.85059 10.1494 3.96973 12.3408 3.36816C14.5322 2.74512 16.9277 2.43359 19.5273 2.43359C22.9648 2.43359 25.9941 3.03516 28.6152 4.23828C31.2578 5.41992 33.3203 7.10645 34.8027 9.29785C36.3066 11.4678 37.0586 14.0352 37.0586 17H25.8115C25.8115 15.8184 25.5645 14.7764 25.0703 13.874C24.5977 12.9717 23.8779 12.2627 22.9111 11.7471C21.9443 11.2314 20.7305 10.9736 19.2695 10.9736C17.8516 10.9736 16.6592 11.1885 15.6924 11.6182C14.7256 12.0479 13.9951 12.6279 13.501 13.3584C13.0068 14.0674 12.7598 14.8516 12.7598 15.7109C12.7598 16.4199 12.9531 17.0645 13.3398 17.6445C13.748 18.2031 14.3174 18.7295 15.0479 19.2236C15.7998 19.7178 16.7021 20.1904 17.7549 20.6416C18.8291 21.0928 20.0322 21.5332 21.3643 21.9629C23.8564 22.7578 26.0693 23.6494 28.0029 24.6377C29.958 25.6045 31.6016 26.7109 32.9336 27.957C34.2871 29.1816 35.3076 30.5781 35.9951 32.1465C36.7041 33.7148 37.0586 35.4873 37.0586 37.4639C37.0586 39.5693 36.6504 41.4385 35.834 43.0713C35.0176 44.7041 33.8467 46.0898 32.3213 47.2285C30.7959 48.3457 28.9697 49.1943 26.8428 49.7744C24.7158 50.3545 22.3418 50.6445 19.7207 50.6445C17.3145 50.6445 14.9404 50.3438 12.5986 49.7422C10.2783 49.1191 8.17285 48.1738 6.28223 46.9062C4.3916 45.6172 2.87695 43.9736 1.73828 41.9756C0.621094 39.9561 0.0625 37.5605 0.0625 34.7891H11.4062C11.4062 36.1641 11.5889 37.3242 11.9541 38.2695C12.3193 39.2148 12.8564 39.9775 13.5654 40.5576C14.2744 41.1162 15.1445 41.5244 16.1758 41.7822C17.207 42.0186 18.3887 42.1367 19.7207 42.1367C21.1602 42.1367 22.3203 41.9326 23.2012 41.5244C24.082 41.0947 24.7266 40.5361 25.1348 39.8486C25.543 39.1396 25.7471 38.3662 25.7471 37.5283Z" fill="black"/>
<path d="M60.6484 38.9463L70.4131 3.07812H83.0781L67.2549 50H59.0693L60.6484 38.9463ZM51.7861 3.07812L61.5508 38.9463L63.1943 50H54.9121L39.1855 3.07812H51.7861Z" fill="black"/>
<path d="M124.457 24.9277V44.1992C123.662 45.0801 122.438 46.0254 120.783 47.0352C119.15 48.0234 117.088 48.8721 114.596 49.5811C112.104 50.29 109.171 50.6445 105.798 50.6445C102.683 50.6445 99.8574 50.1504 97.3223 49.1621C94.7871 48.1523 92.6064 46.6807 90.7803 44.7471C88.9756 42.792 87.5791 40.4072 86.5908 37.5928C85.624 34.7568 85.1406 31.5127 85.1406 27.8604V25.25C85.1406 21.5977 85.6348 18.3535 86.623 15.5176C87.6113 12.6816 88.9971 10.2969 90.7803 8.36328C92.585 6.4082 94.7012 4.92578 97.1289 3.91602C99.5781 2.90625 102.264 2.40137 105.186 2.40137C109.504 2.40137 113.017 3.08887 115.724 4.46387C118.431 5.81738 120.482 7.69727 121.879 10.1035C123.275 12.4883 124.124 15.249 124.425 18.3857H113.564C113.35 16.8389 112.941 15.5283 112.34 14.4541C111.76 13.3584 110.922 12.5312 109.826 11.9727C108.73 11.3926 107.312 11.1025 105.572 11.1025C104.219 11.1025 102.983 11.3926 101.866 11.9727C100.771 12.5527 99.8359 13.4336 99.0625 14.6152C98.2891 15.7754 97.6875 17.2363 97.2578 18.998C96.8496 20.7598 96.6455 22.8223 96.6455 25.1855V27.8604C96.6455 30.2021 96.8389 32.2539 97.2256 34.0156C97.6338 35.7773 98.2354 37.249 99.0303 38.4307C99.8467 39.5908 100.878 40.4717 102.124 41.0732C103.392 41.6533 104.885 41.9434 106.604 41.9434C107.807 41.9434 108.838 41.8467 109.697 41.6533C110.557 41.4385 111.266 41.1807 111.824 40.8799C112.404 40.5576 112.845 40.2568 113.146 39.9775V32.6943H105.282V24.9277H124.457Z" fill="black"/>
<path d="M158.327 45.7461L167.673 3.07812H173.248L176.277 6.71973L166.319 50H160.164L158.327 45.7461ZM155.846 3.07812L163.741 46.0684L161.711 50H154.589L144.631 3.07812H155.846ZM181.401 45.8428L189.232 3.07812H200.415L190.457 50H183.367L181.401 45.8428ZM177.276 3.07812L186.848 46.0039L184.914 50H178.759L168.575 6.65527L171.733 3.07812H177.276Z" fill="black"/>
<path d="M201.962 32.9199V32.2432C201.962 29.6865 202.327 27.334 203.058 25.1855C203.788 23.0156 204.862 21.1357 206.28 19.5459C207.698 17.9561 209.449 16.7207 211.533 15.8398C213.617 14.9375 216.023 14.4863 218.752 14.4863C221.502 14.4863 223.919 14.9375 226.003 15.8398C228.108 16.7207 229.87 17.9561 231.288 19.5459C232.706 21.1357 233.78 23.0156 234.511 25.1855C235.241 27.334 235.606 29.6865 235.606 32.2432V32.9199C235.606 35.4551 235.241 37.8076 234.511 39.9775C233.78 42.126 232.706 44.0059 231.288 45.6172C229.87 47.207 228.119 48.4424 226.035 49.3232C223.951 50.2041 221.545 50.6445 218.816 50.6445C216.088 50.6445 213.671 50.2041 211.565 49.3232C209.46 48.4424 207.698 47.207 206.28 45.6172C204.862 44.0059 203.788 42.126 203.058 39.9775C202.327 37.8076 201.962 35.4551 201.962 32.9199ZM212.822 32.2432V32.9199C212.822 34.2305 212.919 35.4551 213.112 36.5938C213.306 37.7324 213.628 38.7314 214.079 39.5908C214.53 40.4287 215.143 41.084 215.916 41.5566C216.689 42.0293 217.656 42.2656 218.816 42.2656C219.955 42.2656 220.9 42.0293 221.652 41.5566C222.426 41.084 223.038 40.4287 223.489 39.5908C223.94 38.7314 224.263 37.7324 224.456 36.5938C224.649 35.4551 224.746 34.2305 224.746 32.9199V32.2432C224.746 30.9756 224.649 29.7832 224.456 28.666C224.263 27.5273 223.94 26.5283 223.489 25.6689C223.038 24.7881 222.426 24.1006 221.652 23.6064C220.879 23.1123 219.912 22.8652 218.752 22.8652C217.613 22.8652 216.657 23.1123 215.884 23.6064C215.132 24.1006 214.53 24.7881 214.079 25.6689C213.628 26.5283 213.306 27.5273 213.112 28.666C212.919 29.7832 212.822 30.9756 212.822 32.2432Z" fill="black"/>
<path d="M251.397 23.7676V50H240.537V15.1309H250.688L251.397 23.7676ZM261.71 14.873L261.517 24.96C261.087 24.917 260.507 24.8633 259.776 24.7988C259.046 24.7344 258.434 24.7021 257.939 24.7021C256.672 24.7021 255.576 24.8525 254.652 25.1533C253.75 25.4326 252.998 25.8623 252.396 26.4424C251.816 27.001 251.387 27.71 251.107 28.5693C250.85 29.4287 250.731 30.4277 250.753 31.5664L248.787 30.2773C248.787 27.9355 249.013 25.8086 249.464 23.8965C249.937 21.9629 250.603 20.2979 251.462 18.9014C252.321 17.4834 253.363 16.3984 254.588 15.6465C255.812 14.873 257.188 14.4863 258.713 14.4863C259.25 14.4863 259.776 14.5186 260.292 14.583C260.829 14.6475 261.302 14.7441 261.71 14.873Z" fill="black"/>
<path d="M276.405 0.467773V50H265.545V0.467773H276.405ZM298.706 15.1309L283.56 32.8877L275.632 40.8154L270.895 33.9189L277.501 25.3145L285.687 15.1309H298.706ZM287.072 50L277.759 34.1123L285.783 28.4082L299.512 50H287.072Z" fill="black"/>
<path d="M319.814 40.2031C319.814 39.6016 319.61 39.0859 319.202 38.6562C318.815 38.2051 318.128 37.7969 317.14 37.4316C316.151 37.0449 314.766 36.6582 312.982 36.2715C311.285 35.9062 309.685 35.4229 308.181 34.8213C306.698 34.2197 305.398 33.4893 304.281 32.6299C303.164 31.7705 302.283 30.75 301.639 29.5684C301.016 28.3867 300.704 27.0332 300.704 25.5078C300.704 24.0254 301.016 22.6289 301.639 21.3184C302.283 19.9863 303.218 18.8154 304.442 17.8057C305.688 16.7744 307.203 15.9688 308.986 15.3887C310.77 14.7871 312.8 14.4863 315.077 14.4863C318.214 14.4863 320.921 14.9697 323.198 15.9365C325.476 16.8818 327.227 18.2139 328.451 19.9326C329.697 21.6299 330.32 23.5957 330.32 25.8301H319.46C319.46 24.9492 319.31 24.1973 319.009 23.5742C318.729 22.9512 318.268 22.4785 317.623 22.1562C316.979 21.8125 316.119 21.6406 315.045 21.6406C314.293 21.6406 313.605 21.7803 312.982 22.0596C312.381 22.3389 311.897 22.7256 311.532 23.2197C311.167 23.7139 310.984 24.2939 310.984 24.96C310.984 25.4326 311.092 25.8623 311.307 26.249C311.543 26.6143 311.897 26.958 312.37 27.2803C312.843 27.5811 313.444 27.8604 314.175 28.1182C314.905 28.3545 315.786 28.5693 316.817 28.7627C319.159 29.1924 321.351 29.8047 323.392 30.5996C325.433 31.3945 327.087 32.5225 328.354 33.9834C329.644 35.4443 330.288 37.4102 330.288 39.8809C330.288 41.4277 329.934 42.8564 329.225 44.167C328.516 45.4561 327.495 46.5947 326.163 47.583C324.831 48.5498 323.23 49.3018 321.361 49.8389C319.492 50.376 317.387 50.6445 315.045 50.6445C311.715 50.6445 308.9 50.0537 306.602 48.8721C304.303 47.6689 302.562 46.165 301.381 44.3604C300.221 42.5342 299.641 40.6865 299.641 38.8174H309.76C309.803 39.8916 310.061 40.7725 310.533 41.46C311.027 42.1475 311.683 42.6523 312.499 42.9746C313.315 43.2969 314.261 43.458 315.335 43.458C316.323 43.458 317.14 43.3184 317.784 43.0391C318.45 42.7598 318.955 42.3838 319.299 41.9111C319.643 41.417 319.814 40.8477 319.814 40.2031Z" fill="black"/>
</svg>
