<svg xmlns="http://www.w3.org/2000/svg" viewBox="0 0 2237.29 1251.32"><defs><style>.cls-1{isolation:isolate;}.cls-2{fill:#d9e1e7;}.cls-3{fill:#74cabd;}.cls-4{fill:#fff371;}.cls-5{fill:#fff;}.cls-22,.cls-6{fill:#554a9e;}.cls-10,.cls-7{fill:#231f20;mix-blend-mode:multiply;}.cls-7{opacity:0.1;}.cls-8{fill:#02485c;}.cls-9{fill:#86b6cd;}.cls-10{opacity:0.2;}.cls-11{fill:#ffce47;}.cls-12{fill:#639dc2;}.cls-13{fill:#f8a597;}.cls-14{fill:#b2c8dc;}.cls-15{fill:#dcdbda;}.cls-16{fill:#f26d78;}.cls-17{fill:#f5c24a;}.cls-18{fill:#dd9c42;}.cls-19{fill:#f1a948;}.cls-20{fill:#f1b25c;}.cls-21{fill:#8dc63f;}.cls-22{fill-rule:evenodd;}.cls-23{fill:#ee4d9b;}.cls-24{fill:#eedbc7;}.cls-25{fill:#f9a05c;}.cls-26{fill:#fff200;}.cls-27{fill:#816aaf;}.cls-28{fill:#58595b;}.cls-29{fill:#a97c50;}.cls-30{fill:#00a8da;}.cls-31{fill:#f15a29;}.cls-32{fill:#808285;}.cls-33{fill:#cfc7be;}.cls-34{fill:#fcb136;}</style></defs><g class="cls-1"><g id="Layer_2" data-name="Layer 2"><g id="Layer_1-2" data-name="Layer 1"><path class="cls-2" d="M93.59,725.81a31.74,31.74,0,0,0,31.75,31.74H833.23A31.74,31.74,0,0,0,865,725.81h0a31.75,31.75,0,0,0-31.75-31.75H125.34a31.75,31.75,0,0,0-31.75,31.75Z"/><path class="cls-2" d="M1321.93,719.52a37.67,37.67,0,0,0,37.66,37.67h840a37.68,37.68,0,0,0,37.67-37.67h0a37.68,37.68,0,0,0-37.67-37.67h-840a37.67,37.67,0,0,0-37.66,37.67Z"/><path class="cls-2" d="M378.81,546.33A37.68,37.68,0,0,0,416.48,584h840a37.67,37.67,0,0,0,37.67-37.67h0a37.66,37.66,0,0,0-37.67-37.67h-840a37.67,37.67,0,0,0-37.67,37.67Z"/><path class="cls-2" d="M108.73,546.33A37.67,37.67,0,0,0,146.39,584H248.31A37.67,37.67,0,0,0,286,546.33h0a37.66,37.66,0,0,0-37.67-37.67H146.39a37.66,37.66,0,0,0-37.66,37.67Z"/><path class="cls-2" d="M1806.55,892.23c0,20.8-13.22,37.67-29.51,37.67H1119c-16.3,0-29.51-16.87-29.51-37.67h0c0-20.81,13.21-37.67,29.51-37.67H1777c16.29,0,29.51,16.86,29.51,37.67Z"/><path class="cls-2" d="M2070.63,890A37.66,37.66,0,0,1,2033,927.66H1931A37.67,37.67,0,0,1,1893.37,890h0A37.68,37.68,0,0,1,1931,852.32H2033A37.67,37.67,0,0,1,2070.63,890Z"/><path class="cls-2" d="M328.4,747.58a53.51,53.51,0,1,1-53.51-53.52A53.51,53.51,0,0,1,328.4,747.58Z"/><path class="cls-2" d="M326.37,503.18A85.41,85.41,0,1,1,241,417.77,85.41,85.41,0,0,1,326.37,503.18Z"/><path class="cls-2" d="M1753,303.93a37.67,37.67,0,0,1-37.67,37.66H1613.36a37.67,37.67,0,0,1-37.67-37.66h0a37.68,37.68,0,0,1,37.67-37.68h101.92A37.68,37.68,0,0,1,1753,303.93Z"/><path class="cls-2" d="M1535.3,260.78a85.41,85.41,0,1,0,85.41-85.41A85.41,85.41,0,0,0,1535.3,260.78Z"/><path class="cls-2" d="M2161.3,693.69a63.5,63.5,0,1,1-63.49-63.5A63.5,63.5,0,0,1,2161.3,693.69Z"/><path class="cls-2" d="M2066.18,651.54A105.5,105.5,0,1,1,1960.68,546,105.49,105.49,0,0,1,2066.18,651.54Z"/><circle class="cls-2" cx="1730.69" cy="585.71" r="162.74" transform="translate(92.75 1395.33) rotate(-45)"/><circle class="cls-2" cx="1426.18" cy="577.85" r="193.15" transform="translate(9.12 1177.71) rotate(-45)"/><path class="cls-2" d="M1750.69,951.65a105.5,105.5,0,1,1-105.5-105.5A105.49,105.49,0,0,1,1750.69,951.65Z"/><path class="cls-2" d="M472.94,801.09A88.91,88.91,0,1,1,384,712.18,88.9,88.9,0,0,1,472.94,801.09Z"/><circle class="cls-2" cx="545.14" cy="845.14" r="132.54" transform="translate(-384.43 1228.99) rotate(-79.61)"/><path class="cls-2" d="M841.87,828.41A123.25,123.25,0,1,1,718.62,705.16,123.25,123.25,0,0,1,841.87,828.41Z"/><path class="cls-2" d="M808.14,417.77A146.25,146.25,0,1,1,661.89,271.53,146.25,146.25,0,0,1,808.14,417.77Z"/><circle class="cls-2" cx="905.32" cy="372.41" r="191.61" transform="translate(425.17 1225.5) rotate(-82.99)"/><path class="cls-2" d="M591.36,495.69A68.33,68.33,0,1,1,523,427.36,68.33,68.33,0,0,1,591.36,495.69Z"/><polygon class="cls-2" points="621.13 680.26 532.29 712.1 650.5 775.59 621.13 680.26"/><path class="cls-2" d="M1150.25,1099.37a447.86,447.86,0,1,1,174.86-35.3A446.37,446.37,0,0,1,1150.25,1099.37Zm0-897.44C903.11,201.93,702,403,702,650.15s201.07,448.21,448.21,448.21,448.22-201.07,448.22-448.21S1397.4,201.93,1150.25,201.93Z"/><path class="cls-2" d="M1150.25,1151.68c-2,0-4,0-5.93,0l0-2c4.05.05,8.12.05,12.17,0l0,2C1154.44,1151.66,1152.35,1151.68,1150.25,1151.68Zm-18.14-.32c-4-.15-8.15-.34-12.2-.58l.12-2c4,.24,8.12.43,12.15.58Zm36.62,0-.08-2c4-.14,8.12-.34,12.15-.58l.12,2C1176.88,1151,1172.78,1151.2,1168.73,1151.34Zm-61-1.44c-4-.34-8.14-.73-12.16-1.17l.22-2c4,.44,8.08.83,12.11,1.17Zm85.37,0-.17-2c4-.34,8.09-.73,12.11-1.17l.22,2C1201.23,1149.14,1197.14,1149.53,1193.1,1149.87Zm-109.65-2.6c-4-.54-8.07-1.13-12.08-1.76l.31-2c4,.63,8,1.22,12,1.75Zm133.93,0-.27-2c4-.53,8.05-1.13,12-1.76l.32,2C1225.46,1146.09,1221.39,1146.69,1217.38,1147.23Zm-158.05-3.77c-4-.73-8-1.52-12-2.35l.42-2c4,.83,8,1.61,11.94,2.34Zm182.17-.06-.37-2c4-.73,8-1.52,11.93-2.35l.42,2C1249.52,1141.87,1245.49,1142.66,1241.5,1143.4Zm-206.08-4.93c-4-.92-7.94-1.91-11.85-2.93l.51-2c3.9,1,7.87,2,11.81,2.92Zm230-.07-.46-2c3.93-.92,7.9-1.91,11.8-2.93l.52,2C1273.34,1136.48,1269.35,1137.47,1265.4,1138.4Zm-253.62-6.08c-3.89-1.12-7.82-2.3-11.69-3.51l.61-1.94c3.85,1.21,7.77,2.38,11.64,3.5Zm277.25-.09-.56-2c3.88-1.12,7.8-2.29,11.65-3.51l.61,1.94C1296.86,1129.93,1292.92,1131.11,1289,1132.23ZM988.44,1125c-3.85-1.31-7.74-2.69-11.55-4.09l.7-1.91c3.8,1.4,7.67,2.77,11.5,4.08Zm323.89-.09-.65-1.92c3.81-1.3,7.67-2.67,11.46-4.07l.71,1.9C1320,1122.23,1316.16,1123.6,1312.33,1124.91Zm-346.88-8.38c-3.78-1.5-7.59-3.06-11.33-4.66l.79-1.86c3.73,1.58,7.52,3.14,11.28,4.63Zm369.8-.07-.75-1.89c3.73-1.48,7.51-3,11.21-4.61l.79,1.87C1342.79,1113.41,1339,1115,1335.25,1116.46ZM942.91,1107c-3.7-1.69-7.43-3.43-11.08-5.21l.88-1.83c3.64,1.77,7.35,3.51,11,5.19Zm414.73,0-.84-1.84c3.66-1.67,7.35-3.4,11-5.16l.88,1.83C1365,1103.52,1361.31,1105.26,1357.64,1106.92Zm21.92-10.61-.93-1.81c3.57-1.84,7.18-3.75,10.72-5.68l1,1.78C1386.77,1092.54,1383.15,1094.46,1379.56,1096.31Zm-458.68,0c-3.6-1.85-7.24-3.78-10.81-5.74l1-1.78c3.55,2,7.17,3.87,10.76,5.72Zm480.06-11.64-1-1.76c3.49-2,7-4.1,10.44-6.2l1.06,1.73C1408,1080.51,1404.44,1082.61,1400.94,1084.63Zm-501.53-.09c-3.52-2-7-4.14-10.51-6.26l1.06-1.73c3.44,2.11,7,4.2,10.47,6.23Zm522.33-12.62-1.1-1.71c3.39-2.19,6.79-4.44,10.12-6.7l1.14,1.68C1428.56,1067.46,1425.14,1069.72,1421.74,1071.92Zm-543.2-.15c-3.4-2.2-6.83-4.47-10.19-6.76l1.15-1.67c3.34,2.27,6.75,4.53,10.15,6.73Zm563.37-13.56-1.19-1.66c3.27-2.34,6.57-4.76,9.79-7.19l1.22,1.63C1448.49,1053.43,1445.19,1055.86,1441.91,1058.21Zm-583.58-.2c-3.29-2.36-6.61-4.8-9.85-7.24l1.23-1.62c3.22,2.43,6.52,4.86,9.81,7.21Zm603.06-14.48-1.26-1.6c3.16-2.5,6.33-5.07,9.43-7.65l1.3,1.56C1467.75,1038.43,1464.56,1041,1461.39,1043.53Zm-622.57-.24c-3.18-2.52-6.37-5.11-9.48-7.71l1.3-1.56c3.1,2.59,6.28,5.17,9.44,7.68Zm641.33-15.37-1.34-1.53c3-2.65,6.09-5.38,9.06-8.11l1.37,1.49C1486.26,1022.51,1483.2,1025.25,1480.15,1027.92Zm-660.1-.27c-3-2.68-6.11-5.42-9.09-8.16l1.38-1.49c3,2.73,6,5.46,9,8.12Zm678.09-16.24-1.41-1.46c2.9-2.8,5.81-5.67,8.65-8.54l1.45,1.43C1504,1005.72,1501.05,1008.6,1498.14,1011.41Zm-696.07-.29c-2.92-2.81-5.84-5.7-8.69-8.59l1.45-1.42c2.84,2.87,5.75,5.75,8.65,8.55Zm713.24-17.07-1.48-1.39c2.76-2.93,5.54-5.95,8.23-8.95l1.52,1.35C1520.87,988.08,1518.08,991.11,1515.31,994.05Zm-730.4-.3c-2.77-3-5.55-6-8.26-9l1.52-1.35c2.69,3,5.46,6,8.22,9Zm746.72-17.88-1.55-1.32c2.63-3.07,5.25-6.21,7.8-9.34l1.57,1.28C1536.89,969.64,1534.26,972.79,1531.63,975.87Zm-763-.3c-2.62-3.08-5.25-6.23-7.81-9.38l1.58-1.28c2.55,3.14,5.16,6.28,7.77,9.34Zm778.43-18.65-1.6-1.24c2.46-3.19,4.93-6.46,7.33-9.72l1.64,1.21C1552,950.44,1549.53,953.72,1547.05,956.92Zm-793.82-.29c-2.48-3.21-5-6.48-7.34-9.74l1.64-1.2c2.38,3.24,4.84,6.5,7.31,9.7Zm808.31-19.39-1.66-1.17c2.31-3.31,4.62-6.7,6.85-10.06l1.7,1.12C1566.18,930.51,1563.87,933.91,1561.54,937.24ZM738.78,937c-2.31-3.31-4.62-6.71-6.85-10.08l1.69-1.12c2.22,3.36,4.52,6.74,6.83,10Zm836.28-20.11-1.72-1.08c2.15-3.42,4.29-6.91,6.36-10.39l1.75,1C1579.37,909.92,1577.22,913.43,1575.06,916.86Zm-849.75-.21c-2.15-3.42-4.29-6.92-6.36-10.4l1.75-1c2.06,3.47,4.19,6.95,6.33,10.36Zm862.27-20.8-1.77-1c2-3.52,4-7.11,5.85-10.69l1.8,1C1591.55,888.7,1589.57,892.32,1587.58,895.85Zm-874.73-.14c-2-3.53-4-7.13-5.85-10.69l1.8-1c1.88,3.56,3.84,7.14,5.82,10.65Zm886.21-21.48-1.81-.9c1.81-3.62,3.6-7.32,5.31-11l1.84.86C1602.68,866.89,1600.88,870.6,1599.06,874.23Zm-897.64,0c-1.8-3.61-3.59-7.3-5.31-11l1.84-.87c1.71,3.64,3.49,7.31,5.29,10.91Zm-10.35-22c-1.63-3.69-3.23-7.45-4.78-11.2l1.88-.78c1.54,3.74,3.14,7.49,4.76,11.15Zm918.4-.08-1.85-.82c1.63-3.71,3.24-7.48,4.77-11.22l1.88.77C1612.73,844.56,1611.12,848.35,1609.47,852.08ZM681.79,829.61c-1.46-3.79-2.88-7.65-4.23-11.46l1.91-.68c1.35,3.8,2.77,7.64,4.21,11.41Zm937-.18-1.91-.73c1.46-3.79,2.88-7.64,4.23-11.45l1.91.68C1621.68,821.75,1620.25,825.62,1618.8,829.43ZM673.61,806.6c-1.26-3.85-2.5-7.77-3.67-11.65l1.95-.59c1.16,3.87,2.39,7.77,3.65,11.6Zm953.38-.27-1.93-.63c1.26-3.85,2.49-7.77,3.65-11.65l2,.59C1629.49,798.53,1628.25,802.47,1627,806.33ZM666.56,783.21c-1.07-3.91-2.11-7.88-3.08-11.82l2-.48c1,3.91,2,7.87,3.07,11.76ZM1634,782.9l-2-.54c1.07-3.89,2.1-7.85,3.07-11.77l2,.49C1636.14,775,1635.1,779,1634,782.9ZM660.68,759.51c-.88-4-1.72-8-2.5-12l2-.39c.78,4,1.62,8,2.49,11.91Zm979.22-.32-2-.44c.88-3.94,1.72-7.94,2.49-11.9l2,.39C1641.62,751.21,1640.77,755.24,1639.9,759.19ZM656,735.54c-.68-4-1.33-8-1.91-12.06l2-.29c.59,4,1.23,8,1.91,12Zm988.64-.31-2-.35c.68-4,1.32-8,1.9-12l2,.29C1645.92,727.17,1645.28,731.23,1644.6,735.23ZM652.42,711.38c-.49-4-.93-8.1-1.32-12.14l2-.2c.39,4,.83,8.09,1.32,12.1Zm995.71-.32-2-.25c.48-4,.93-8.07,1.31-12.09l2,.2C1649.06,703,1648.61,707,1648.13,711.06Zm-998.07-24c-.29-4-.54-8.13-.74-12.19l2-.09c.2,4,.45,8.12.74,12.14Zm1000.41-.32-2-.15c.29-4,.54-8.1.73-12.14l2,.1C1651,678.61,1650.76,682.71,1650.47,686.75ZM648.88,662.68c-.1-4-.15-8.15-.16-12.21h2c0,4,.06,8.14.16,12.16Zm1002.76-.32-2-.05c.1-4,.15-8.12.15-12.16v-.69h2v.69C1651.79,654.2,1651.74,658.31,1651.64,662.36ZM650.89,638.3l-2,0c.1-4.06.24-8.16.43-12.21l2,.1C651.13,630.18,651,634.27,650.89,638.3Zm998.7-1c-.1-4-.25-8.14-.45-12.15l2-.1c.2,4,.35,8.14.45,12.2ZM652,614l-2-.15c.29-4,.64-8.13,1-12.16l2,.19C652.67,605.9,652.33,610,652,614Zm996.35-1c-.29-4-.64-8.11-1-12.11l2-.2c.39,4,.74,8.11,1,12.17Zm-994-23.2-2-.25c.49-4,1-8.1,1.61-12.1l2,.29C655.38,581.72,654.85,585.78,654.36,589.8Zm991.66-1c-.48-4-1-8.06-1.62-12.06l2-.29c.59,4,1.14,8.08,1.63,12.1ZM657.86,565.73l-2-.35c.68-4,1.41-8,2.19-12l2,.39C659.27,557.71,658.54,561.74,657.86,565.73Zm984.62-1c-.69-4-1.43-8-2.21-12l2-.4c.79,4,1.53,8,2.22,12Zm-980-22.89-2-.43c.88-4,1.81-8,2.78-11.9l2,.49C664.33,533.93,663.4,537.91,662.52,541.85Zm975.25-1c-.88-3.94-1.82-7.92-2.8-11.83l2-.49c1,3.92,1.93,7.92,2.81,11.88ZM668.36,518.24l-2-.53c1.06-3.91,2.19-7.86,3.36-11.75l1.94.59C670.54,510.42,669.42,514.35,668.36,518.24Zm963.53-1c-1.07-3.88-2.2-7.81-3.37-11.68l1.94-.59c1.18,3.89,2.31,7.84,3.39,11.73ZM675.34,494.94l-1.93-.63c1.26-3.87,2.59-7.77,3.94-11.6l1.92.68C677.92,487.2,676.6,491.09,675.34,494.94Zm949.52-.95c-1.26-3.84-2.59-7.71-3.94-11.51l1.91-.68c1.36,3.82,2.69,7.7,4,11.55ZM683.48,471.93l-1.9-.72c1.46-3.8,3-7.63,4.52-11.39l1.88.77C686.44,464.34,684.93,468.16,683.48,471.93Zm933.22-.86c-1.45-3.76-3-7.56-4.5-11.3l1.87-.77c1.55,3.75,3.07,7.57,4.52,11.35Zm-924-21.7-1.85-.82c1.63-3.72,3.33-7.47,5.06-11.15l1.84.86C696.07,441.93,694.37,445.66,692.74,449.37Zm914.7-.74c-1.63-3.69-3.32-7.4-5-11l1.83-.86c1.73,3.65,3.42,7.38,5.06,11.08ZM703.1,427.29l-1.82-.91c1.82-3.63,3.7-7.29,5.6-10.88l1.8,1C706.78,420,704.91,423.67,703.1,427.29Zm894-.6c-1.81-3.61-3.68-7.23-5.57-10.78l1.79-1c1.9,3.56,3.78,7.2,5.59,10.82ZM714.52,405.76l-1.77-1c2-3.54,4-7.1,6.12-10.59l1.75,1C718.55,398.69,716.5,402.24,714.52,405.76Zm871.19-.49c-2-3.51-4-7-6.08-10.5l1.74-1c2.07,3.47,4.13,7,6.11,10.54ZM727,384.82l-1.72-1.08c2.15-3.43,4.38-6.89,6.63-10.27l1.69,1.12C731.34,378,729.12,381.41,727,384.82Zm846.31-.4c-2.15-3.42-4.37-6.85-6.59-10.2l1.7-1.13c2.22,3.37,4.45,6.81,6.61,10.24Zm-832.86-19.9-1.66-1.16c2.31-3.32,4.71-6.67,7.12-9.94l1.63,1.2C745.12,357.88,742.73,361.21,740.42,364.52Zm819.43-.34c-2.31-3.3-4.69-6.62-7.08-9.87l1.63-1.2c2.4,3.26,4.8,6.59,7.12,9.91Zm-805-19.28-1.61-1.24c2.48-3.2,5-6.42,7.59-9.57l1.58,1.28C759.85,338.51,757.31,341.72,754.84,344.9Zm790.61-.28c-2.47-3.19-5-6.4-7.56-9.52l1.58-1.28c2.55,3.14,5.1,6.35,7.59,9.56ZM770.19,326l-1.55-1.32c2.63-3.09,5.34-6.18,8.05-9.2l1.51,1.36C775.5,319.86,772.81,323,770.19,326Zm759.92-.25c-2.62-3.07-5.32-6.14-8-9.15l1.51-1.35c2.71,3,5.41,6.1,8,9.18ZM786.43,307.9,785,306.51c2.77-2.95,5.62-5.9,8.47-8.79l1.45,1.42C792,302,789.19,305,786.43,307.9Zm727.44-.22c-2.76-2.93-5.6-5.88-8.45-8.75l1.45-1.43c2.86,2.88,5.71,5.84,8.48,8.78ZM803.52,290.6l-1.41-1.47c2.91-2.81,5.9-5.62,8.89-8.37l1.37,1.5C809.4,285,806.42,287.8,803.52,290.6Zm693.25-.22c-2.9-2.79-5.88-5.59-8.86-8.33l1.37-1.5c3,2.75,6,5.56,8.9,8.37ZM821.42,274.14l-1.34-1.52c3-2.67,6.17-5.34,9.28-7.93l1.3,1.56C827.56,268.83,824.45,271.49,821.42,274.14Zm657.43-.21c-3-2.65-6.15-5.31-9.26-7.89l1.3-1.56c3.12,2.6,6.25,5.26,9.29,7.92ZM840.09,258.58,838.83,257c3.18-2.52,6.43-5,9.65-7.46l1.22,1.62C846.5,253.57,843.26,256.07,840.09,258.58Zm620.05-.21c-3.17-2.51-6.41-5-9.63-7.45l1.22-1.62c3.24,2.44,6.49,4.95,9.67,7.48ZM859.49,244l-1.18-1.65c3.28-2.35,6.64-4.7,10-7l1.14,1.68C866.11,239.27,862.76,241.61,859.49,244Zm581.21-.23c-3.29-2.35-6.65-4.69-10-7l1.14-1.68c3.36,2.28,6.73,4.64,10,7ZM879.56,230.28l-1.1-1.71c3.41-2.2,6.88-4.38,10.32-6.49l1.06,1.74C886.41,225.91,883,228.09,879.56,230.28Zm541-.25c-3.4-2.19-6.87-4.37-10.32-6.48l1.06-1.73c3.47,2.12,7,4.31,10.36,6.5ZM900.27,217.61l-1-1.76c3.5-2,7.07-4,10.62-6l1,1.78C907.31,213.58,903.75,215.59,900.27,217.61Zm499.5-.28c-3.51-2-7.08-4-10.63-6l1-1.79c3.55,1.94,7.14,4,10.66,6ZM921.56,206l-.93-1.81c3.58-1.85,7.24-3.68,10.89-5.45l.88,1.83C928.78,202.29,925.13,204.12,921.56,206Zm456.82-.3c-3.59-1.84-7.26-3.67-10.91-5.44l.88-1.83c3.67,1.77,7.35,3.61,11,5.47Zm-435-10.29-.84-1.85c3.68-1.68,7.42-3.33,11.14-4.92l.8,1.88C950.77,192.05,947,193.7,943.37,195.37Zm413.06-.32c-3.68-1.67-7.44-3.32-11.17-4.91l.8-1.87c3.74,1.59,7.51,3.25,11.21,4.93Zm-390.76-9.19-.75-1.89c3.76-1.5,7.6-3,11.4-4.38l.71,1.91C973.24,182.9,969.42,184.37,965.67,185.86Zm368.31-.34c-3.76-1.49-7.6-3-11.4-4.35l.7-1.91c3.82,1.4,7.67,2.87,11.45,4.37Zm-345.5-8.1-.65-1.92c3.82-1.31,7.73-2.59,11.6-3.81l.61,1.94C996.19,174.84,992.3,176.12,988.48,177.42Zm322.59-.32c-3.83-1.31-7.74-2.58-11.6-3.79l.6-1.94c3.89,1.22,7.81,2.5,11.66,3.8Zm-299.38-7-.57-2c3.9-1.12,7.86-2.21,11.78-3.23l.51,2C1019.51,167.92,1015.56,169,1011.69,170.12Zm276.12-.29c-3.88-1.11-7.83-2.19-11.73-3.2l.51-2c3.92,1,7.88,2.1,11.78,3.21ZM1035.22,164l-.47-2c3.94-.93,8-1.82,11.92-2.66l.42,2C1043.13,162.14,1039.14,163,1035.22,164Zm229-.24c-3.93-.92-7.93-1.8-11.88-2.62l.42-2c4,.82,8,1.71,11.92,2.63ZM1059,159l-.37-2c4-.74,8-1.43,12-2.07l.32,2C1067,157.53,1063,158.23,1059,159Zm181.43-.19c-4-.72-8-1.41-12-2l.32-2c4,.63,8.06,1.31,12,2ZM1083,155.13l-.27-2c4-.54,8.08-1,12.12-1.49l.22,2C1091.09,154.09,1087,154.59,1083,155.13Zm133.39-.14c-4-.53-8.06-1-12.08-1.45l.22-2c4,.43,8.11.92,12.12,1.46Zm-109.21-2.52-.18-2c4-.35,8.13-.65,12.18-.89l.13,2C1115.31,151.83,1111.23,152.13,1107.22,152.47Zm85-.09c-4-.33-8.1-.62-12.13-.86l.12-2c4,.23,8.14.52,12.18.86ZM1131.5,151l-.08-2c4-.15,8.14-.25,12.19-.3l0,2C1139.6,150.74,1135.51,150.84,1131.5,151Zm36.46,0c-4-.14-8.11-.23-12.16-.27l0-2c4.07.05,8.18.14,12.21.28Z"/><path class="cls-2" d="M1144.34,1251.32c-4,0-8.15-.12-12.19-.24l.07-2c4,.12,8.1.2,12.14.24Zm12.18,0,0-2c4,0,8.11-.12,12.13-.24l.06,2C1164.66,1251.19,1160.56,1251.27,1156.52,1251.32Zm-36.54-.72c-4-.2-8.13-.45-12.16-.73l.14-2c4,.28,8.1.53,12.12.73Zm60.89,0-.11-2c4-.2,8.1-.45,12.13-.73l.14,2C1189,1250.13,1184.9,1250.38,1180.87,1250.58Zm-85.2-1.68c-4-.36-8.1-.77-12.12-1.21l.22-2c4,.44,8.07.85,12.09,1.21Zm109.5,0-.18-2c4-.37,8.07-.77,12.08-1.22l.23,2C1213.27,1248.1,1209.19,1248.51,1205.17,1248.87Zm-133.72-2.64c-4-.53-8.07-1.1-12.06-1.7l.3-2c4,.6,8,1.17,12,1.69Zm157.94,0-.26-2c4-.53,8-1.1,12-1.71l.31,2C1237.46,1245.08,1233.4,1245.66,1229.39,1246.18Zm-182-3.6c-4-.69-8-1.43-12-2.2l.38-2c4,.76,8,1.5,12,2.19Zm206.12-.06-.34-2c4-.69,8-1.43,11.94-2.2l.39,2C1261.5,1241.09,1257.47,1241.83,1253.48,1242.52Zm-230-4.57c-3.94-.85-7.94-1.75-11.89-2.68l.47-2c3.94.93,7.92,1.83,11.84,2.67Zm254-.08-.42-2c3.93-.85,7.92-1.75,11.84-2.68l.47,2C1285.36,1236.12,1281.36,1237,1277.4,1237.87Zm-277.68-5.52c-3.9-1-7.86-2.07-11.77-3.17l.55-2c3.89,1.09,7.84,2.15,11.73,3.15Zm301.4-.09-.51-2c3.9-1,7.84-2.07,11.72-3.15l.55,1.95C1309,1230.18,1305,1231.25,1301.12,1232.26Zm-324.87-6.48c-3.89-1.17-7.82-2.4-11.67-3.65l.63-1.94c3.84,1.25,7.75,2.48,11.63,3.65Zm348.33-.1-.59-1.94c3.85-1.16,7.74-2.39,11.58-3.64l.64,1.94C1332.35,1223.29,1328.44,1224.52,1324.58,1225.68ZM953,1218.23c-3.84-1.33-7.71-2.72-11.51-4.13l.7-1.9c3.8,1.4,7.65,2.79,11.47,4.11Zm394.76-.08-.66-1.92c3.8-1.32,7.64-2.7,11.43-4.1l.7,1.9C1355.43,1215.44,1351.57,1216.83,1347.75,1218.15Zm-417.69-8.41c-3.78-1.49-7.6-3-11.33-4.59l.79-1.88c3.71,1.56,7.51,3.1,11.28,4.58Zm440.54-.06-.74-1.89c3.73-1.47,7.5-3,11.21-4.55l.78,1.88C1378.13,1206.67,1374.35,1208.21,1370.6,1209.68Zm-463.09-9.36c-3.71-1.63-7.45-3.33-11.13-5l.86-1.84c3.67,1.71,7.4,3.4,11.09,5Zm485.49,0-.82-1.86c3.68-1.62,7.39-3.3,11-5l.86,1.84C1400.41,1197,1396.69,1198.69,1393,1200.32Zm22-10.26-.9-1.83c3.6-1.76,7.24-3.6,10.81-5.44l.94,1.8C1422.28,1186.44,1418.63,1188.28,1415,1190.06ZM885.37,1190c-3.65-1.79-7.31-3.64-10.91-5.5l.94-1.81c3.58,1.85,7.23,3.7,10.86,5.48Zm551.24-11.1-1-1.78c3.52-1.92,7.09-3.9,10.58-5.89l1,1.77C1443.72,1175,1440.14,1177,1436.61,1178.9Zm-572.94-.12c-3.54-1.93-7.13-3.93-10.66-5.94l1-1.76c3.52,2,7.1,4,10.64,5.91Zm594.06-11.9-1-1.75c3.44-2.05,6.92-4.17,10.34-6.31l1.08,1.73C1464.67,1162.69,1461.18,1164.82,1457.73,1166.88Zm-615.26-.19c-3.47-2.07-7-4.21-10.42-6.36l1.08-1.72c3.43,2.14,6.92,4.27,10.38,6.34ZM1478.36,1154l-1.11-1.7c3.38-2.2,6.77-4.47,10.08-6.73l1.15,1.68C1485.15,1149.52,1481.75,1151.79,1478.36,1154Zm-656.59-.24c-3.39-2.22-6.8-4.5-10.14-6.78l1.14-1.68c3.34,2.28,6.74,4.55,10.11,6.76Zm676.69-13.46-1.18-1.66c3.29-2.33,6.59-4.73,9.81-7.13l1.22,1.63C1505.07,1135.55,1501.76,1138,1498.46,1140.3Zm-696.83-.3c-3.31-2.36-6.63-4.77-9.86-7.18l1.21-1.63c3.23,2.4,6.53,4.81,9.82,7.15ZM1518,1125.79l-1.24-1.61c3.18-2.46,6.38-5,9.51-7.52l1.28,1.58C1524.41,1120.78,1521.2,1123.32,1518,1125.79Zm-735.94-.35c-3.2-2.48-6.41-5-9.56-7.57l1.28-1.58c3.13,2.54,6.34,5.08,9.52,7.55ZM1537,1110.5l-1.31-1.55c3.08-2.59,6.17-5.25,9.21-7.91l1.34,1.53C1543.14,1105.24,1540,1107.91,1537,1110.5Zm-773.85-.39c-3.09-2.6-6.2-5.27-9.24-7.95l1.34-1.52c3,2.66,6.13,5.33,9.21,7.92Zm792.16-15.65-1.37-1.5c3-2.71,6-5.49,8.89-8.27l1.4,1.47C1561.24,1089,1558.24,1091.74,1555.26,1094.46ZM744.78,1094c-3-2.72-6-5.51-8.91-8.31l1.4-1.47c2.93,2.79,5.91,5.57,8.88,8.28Zm828.15-16.35-1.43-1.44c2.87-2.84,5.75-5.74,8.55-8.62l1.45,1.41C1578.69,1071.93,1575.81,1074.84,1572.93,1077.68Zm-845.8-.44c-2.87-2.85-5.75-5.76-8.57-8.66l1.46-1.42c2.81,2.9,5.68,5.8,8.54,8.63Zm862.78-17-1.49-1.39c2.75-3,5.51-6,8.2-9l1.51,1.35C1595.43,1054.22,1592.67,1057.25,1589.91,1060.21Zm-879.74-.47c-2.75-3-5.51-6-8.21-9l1.52-1.36c2.68,3,5.44,6,8.18,9Zm896-17.68-1.54-1.33c2.64-3.06,5.27-6.19,7.83-9.29l1.57,1.3C1611.46,1035.85,1608.82,1039,1606.17,1042.06Zm-912.23-.47c-2.63-3.06-5.27-6.2-7.84-9.31l1.56-1.3c2.57,3.11,5.2,6.23,7.82,9.29Zm927.76-18.33-1.6-1.26c2.51-3.17,5-6.39,7.46-9.6l1.61,1.23C1626.73,1016.85,1624.21,1020.09,1621.7,1023.26Zm-943.25-.46c-2.49-3.15-5-6.39-7.45-9.62l1.62-1.23c2.44,3.22,4.94,6.45,7.43,9.59Zm958-18.95-1.65-1.2c2.38-3.27,4.75-6.59,7.06-9.9l1.67,1.17C1641.22,997.23,1638.84,1000.57,1636.46,1003.85Zm-972.72-.44c-2.38-3.27-4.75-6.6-7.06-9.91l1.67-1.16c2.3,3.3,4.66,6.62,7,9.88Zm986.68-19.57-1.69-1.13c2.25-3.36,4.49-6.78,6.66-10.17l1.71,1.09C1654.92,977,1652.67,980.47,1650.42,983.84Zm-1000.59-.39c-2.25-3.36-4.49-6.79-6.65-10.18l1.71-1.09c2.16,3.38,4.39,6.79,6.63,10.15Zm1013.74-20.16-1.74-1.06c2.12-3.47,4.22-7,6.24-10.45l1.76,1C1667.8,956.29,1665.69,959.81,1663.57,963.29ZM636.74,963c-2.1-3.45-4.2-7-6.23-10.45l1.76-1c2,3.48,4.11,7,6.2,10.41ZM1675.87,942.2l-1.77-1c2-3.53,3.92-7.13,5.81-10.69l1.79,1C1679.81,935.05,1677.84,938.66,1675.87,942.2ZM624.49,942c-2-3.52-3.91-7.11-5.79-10.68l1.79-.95c1.88,3.55,3.83,7.13,5.78,10.64Zm1062.82-21.32-1.81-.91c1.82-3.61,3.63-7.29,5.37-10.92l1.84.88C1691,913.32,1689.14,917,1687.31,920.63Zm-1074.19-.15c-1.83-3.62-3.63-7.29-5.37-10.9l1.84-.88c1.72,3.61,3.52,7.26,5.34,10.87Zm1084.75-21.87-1.85-.84c1.68-3.69,3.34-7.44,4.93-11.14l1.86.8C1701.22,891.15,1699.56,894.91,1697.87,898.61Zm-1095.25,0c-1.67-3.66-3.32-7.4-4.91-11.1l1.87-.81c1.58,3.69,3.23,7.42,4.89,11.07ZM593,876.27c-1.53-3.75-3-7.56-4.47-11.34l1.9-.72c1.43,3.75,2.93,7.56,4.45,11.29Zm1114.5-.11-1.89-.77c1.53-3.75,3-7.56,4.47-11.33l1.9.73C1710.56,868.57,1709.06,872.39,1707.53,876.16ZM584.32,853.51c-1.37-3.81-2.72-7.68-4-11.51l1.93-.65c1.28,3.82,2.63,7.68,4,11.47Zm1131.94-.19-1.92-.69c1.37-3.8,2.72-7.68,4-11.51l1.93.65C1719,845.61,1717.63,849.5,1716.26,853.32ZM576.55,830.41c-1.22-3.87-2.41-7.8-3.53-11.66l2-.57c1.12,3.85,2.3,7.76,3.52,11.62Zm1147.5-.27-1.94-.61c1.2-3.85,2.38-7.76,3.51-11.63l2,.57C1726.44,822.35,1725.26,826.28,1724.05,830.14ZM569.73,807c-1.06-3.9-2.08-7.87-3.06-11.8l2-.49c1,3.92,2,7.87,3,11.76Zm1161.13-.28-2-.53c1-3.88,2.06-7.84,3-11.76l2,.49C1732.93,798.87,1731.91,802.84,1730.86,806.74Zm-1167-23.37c-.89-3.93-1.75-7.94-2.56-11.91l2-.41c.81,4,1.67,8,2.56,11.87Zm1172.85-.29-2-.45c.88-3.93,1.74-7.93,2.55-11.87l2,.41C1738.46,775.12,1737.6,779.13,1736.71,783.08ZM559,759.5c-.73-4-1.43-8-2.08-12l2-.33c.64,4,1.34,8,2.07,12Zm1182.62-.29-2-.37c.72-4,1.42-8,2.07-12l2,.32C1743,751.19,1742.32,755.23,1741.59,759.21ZM555.06,735.44c-.57-4-1.11-8.07-1.59-12.07l2-.25c.49,4,1,8,1.59,12Zm1190.43-.28-2-.29c.57-4,1.1-8,1.58-12l2,.25C1746.59,727.08,1746.06,731.14,1745.49,735.16ZM552.12,711.26c-.41-4-.78-8.11-1.1-12.14l2-.16c.33,4,.7,8.08,1.1,12.09Zm1196.3-.3-2-.2c.41-4,.77-8.07,1.1-12.09l2,.16C1749.19,702.87,1748.82,707,1748.42,711ZM550.16,687c-.24-4-.45-8.12-.61-12.17l2-.09c.16,4,.37,8.12.61,12.13Zm1200.2-.29-2-.12c.24-4,.44-8.09.6-12.13l2,.08C1750.81,678.56,1750.61,682.66,1750.36,686.68Zm-1201.18-24c-.08-4-.13-8.15-.13-12.19h2c0,4,0,8.11.13,12.14Zm1202.15-.32-2,0c.08-4,.12-8.11.12-12.14v-.63h2v.62C1751.46,654.2,1751.41,658.3,1751.33,662.33Zm-1200.13-24-2,0c.08-4,.2-8.14.36-12.18l2,.08C551.4,630.2,551.28,634.29,551.2,638.32Zm1198.09-1c-.08-4-.21-8.08-.37-12.11l2-.08c.16,4,.29,8.13.37,12.15ZM552.15,614.05l-2-.12c.24-4,.52-8.12.84-12.15l2,.16C552.68,606,552.39,610,552.15,614.05Zm1196.15-.92c-.25-4-.54-8.1-.86-12.11l2-.16c.32,4,.61,8.11.86,12.15ZM554.08,589.84l-2-.2c.4-4,.85-8.1,1.33-12.11l2,.25C554.93,581.76,554.48,585.83,554.08,589.84Zm1192.25-.91c-.4-4-.85-8.06-1.34-12.07l2-.24c.49,4,1,8.09,1.36,12.1ZM557,565.73l-2-.28c.57-4,1.18-8.05,1.83-12.05l2,.33C558.16,557.71,557.55,561.75,557,565.73Zm1186.41-.91c-.56-4-1.18-8-1.83-12l2-.33c.66,4,1.28,8,1.84,12ZM560.86,541.76l-2-.37c.73-4,1.51-8,2.32-12l2,.41C562.36,533.78,561.59,537.79,560.86,541.76Zm1178.62-.9c-.73-4-1.51-8-2.32-11.92l2-.41c.81,4,1.59,8,2.33,12ZM565.71,518l-2-.44c.89-3.95,1.83-7.94,2.8-11.86l2,.49C567.54,510.06,566.6,514,565.71,518Zm1168.88-.89c-.89-3.94-1.83-7.91-2.8-11.81l2-.5c1,3.92,1.92,7.91,2.81,11.86ZM571.53,494.39l-2-.53c1-3.9,2.15-7.85,3.28-11.74l1.95.57C573.67,486.56,572.57,490.5,571.53,494.39Zm1157.21-.89c-1-3.9-2.16-7.83-3.29-11.69l2-.57c1.14,3.87,2.25,7.82,3.3,11.73ZM578.3,471.06l-1.94-.6c1.22-3.87,2.49-7.79,3.78-11.64l1.92.65C580.78,463.3,579.51,467.2,578.3,471.06Zm1143.63-.87c-1.21-3.84-2.47-7.73-3.76-11.55l1.92-.65c1.3,3.84,2.56,7.74,3.78,11.59ZM586.06,448l-1.92-.69c1.38-3.83,2.8-7.68,4.25-11.47l1.89.73C588.85,440.3,587.42,444.14,586.06,448Zm1128.11-.78c-1.36-3.79-2.78-7.62-4.23-11.39l1.9-.72c1.45,3.77,2.88,7.62,4.24,11.42Zm-1119.43-22-1.88-.76c1.52-3.74,3.1-7.54,4.71-11.28l1.87.8C597.84,417.68,596.26,421.46,594.74,425.19Zm1110.74-.69c-1.52-3.73-3.09-7.48-4.67-11.16l1.86-.81c1.59,3.7,3.17,7.47,4.69,11.2ZM604.36,402.81,602.5,402c1.67-3.68,3.41-7.4,5.16-11.07l1.84.88C607.75,395.43,606,399.15,604.36,402.81Zm1091.55-.54c-1.67-3.65-3.39-7.34-5.12-11l1.83-.88c1.74,3.63,3.47,7.33,5.14,11Zm-1081-21.42-1.82-.91c1.82-3.61,3.71-7.26,5.61-10.85l1.79,1C618.56,373.62,616.68,377.25,614.87,380.85Zm1070.57-.4c-1.81-3.6-3.69-7.21-5.57-10.76l1.8-.95c1.88,3.56,3.76,7.19,5.58,10.79ZM626.26,359.35l-1.78-1c2-3.54,4-7.11,6-10.6l1.76,1C630.25,352.26,628.22,355.82,626.26,359.35Zm1047.83-.3c-1.95-3.5-4-7-6-10.52l1.76-1c2,3.49,4.06,7,6,10.56ZM638.51,338.33l-1.73-1.05c2.11-3.46,4.28-6.94,6.46-10.35L645,328C642.78,331.42,640.61,334.89,638.51,338.33Zm1023.36-.2c-2.09-3.42-4.25-6.88-6.42-10.28l1.71-1.09c2.18,3.41,4.35,6.87,6.45,10.31ZM651.61,317.84l-1.7-1.13c2.25-3.37,4.57-6.76,6.88-10.07l1.67,1.16C656.15,311.11,653.84,314.48,651.61,317.84Zm997.2-.13c-2.23-3.35-4.53-6.72-6.83-10l1.67-1.16c2.3,3.31,4.61,6.69,6.85,10.05ZM665.51,297.9l-1.64-1.2c2.38-3.27,4.83-6.56,7.27-9.79l1.62,1.23C670.32,291.36,667.89,294.64,665.51,297.9Zm969.43-.08c-2.37-3.25-4.8-6.53-7.24-9.73l1.62-1.23c2.44,3.22,4.89,6.5,7.26,9.76ZM680.21,278.54l-1.59-1.26c2.51-3.17,5.08-6.36,7.66-9.48l1.57,1.29C685.28,272.2,682.71,275.38,680.21,278.54Zm940.06,0c-2.5-3.15-5.06-6.32-7.63-9.43l1.57-1.3c2.58,3.12,5.15,6.31,7.65,9.47Zm-924.6-18.7-1.54-1.32c2.63-3.07,5.34-6.15,8-9.17l1.51,1.36C701,253.67,698.3,256.74,695.67,259.8Zm909.16,0c-2.63-3.06-5.32-6.13-8-9.13l1.52-1.35c2.69,3,5.39,6.09,8,9.15Zm-16.19-18.09c-2.76-2.95-5.57-5.91-8.37-8.8l1.46-1.41c2.81,2.89,5.63,5.86,8.39,8.83Zm-876.77,0-1.48-1.39c2.75-2.95,5.57-5.92,8.39-8.82l1.46,1.41C717.43,235.8,714.62,238.76,711.87,241.7Zm859.86-17.42c-2.87-2.83-5.8-5.68-8.72-8.46l1.4-1.47c2.93,2.79,5.87,5.64,8.75,8.48Zm-842.95,0-1.42-1.44c2.87-2.84,5.81-5.7,8.74-8.48l1.4,1.47C734.58,218.6,731.65,221.44,728.78,224.27Zm17.6-16.72-1.37-1.5c3-2.73,6-5.46,9.08-8.12l1.33,1.52C752.4,202.11,749.35,204.83,746.38,207.55Zm807.75,0c-3-2.73-6-5.45-9.05-8.1l1.33-1.53c3,2.66,6.09,5.39,9.09,8.13Zm-789.5-16L763.32,190c3.09-2.59,6.24-5.2,9.39-7.74l1.28,1.58C770.85,186.36,767.7,189,764.63,191.55Zm771.23,0c-3.08-2.59-6.23-5.19-9.37-7.73l1.27-1.58c3.15,2.55,6.32,5.16,9.41,7.76ZM783.5,176.3l-1.24-1.61c3.19-2.48,6.46-4.95,9.69-7.36l1.21,1.64C789.94,171.36,786.69,173.83,783.5,176.3Zm733.46,0c-3.2-2.47-6.46-4.95-9.68-7.35l1.21-1.63c3.24,2.41,6.51,4.89,9.71,7.38ZM803,161.83l-1.18-1.66c3.29-2.34,6.65-4.68,10-7l1.14,1.69C809.59,157.16,806.25,159.5,803,161.83Zm694.48-.07c-3.28-2.33-6.64-4.67-10-6.95l1.14-1.68c3.35,2.29,6.72,4.63,10,7ZM823,148.16l-1.11-1.7c3.38-2.21,6.83-4.41,10.25-6.55l1.08,1.73C829.8,143.77,826.36,146,823,148.16Zm654.37-.1c-3.37-2.2-6.82-4.4-10.25-6.54l1.08-1.72c3.44,2.14,6.9,4.35,10.28,6.56ZM843.55,135.32l-1-1.75c3.47-2.07,7-4.13,10.5-6.12l1,1.76C850.53,131.2,847,133.25,843.55,135.32Zm613.18-.14c-3.46-2.06-7-4.12-10.51-6.12l1-1.77c3.52,2,7.07,4.08,10.54,6.15ZM864.6,123.32l-1-1.78c3.55-1.93,7.16-3.85,10.73-5.69l.94,1.8C871.74,119.49,868.14,121.4,864.6,123.32Zm571-.17c-3.55-1.93-7.17-3.84-10.76-5.69l.94-1.81c3.6,1.86,7.23,3.78,10.79,5.71Zm-549.48-11-.9-1.82c3.62-1.78,7.31-3.55,10.95-5.25L897,107C893.39,108.66,889.72,110.42,886.11,112.19ZM1414,112c-3.62-1.78-7.32-3.55-11-5.25l.86-1.84c3.67,1.71,7.38,3.48,11,5.27ZM908,102l-.82-1.85c3.69-1.64,7.44-3.25,11.15-4.8l.78,1.87C915.46,98.71,911.72,100.33,908,102Zm483.85-.25c-3.69-1.63-7.45-3.25-11.19-4.8l.78-1.88c3.75,1.56,7.53,3.18,11.24,4.82ZM930.36,92.61l-.75-1.88c3.78-1.49,7.61-3,11.38-4.36l.71,1.9C937.93,89.67,934.12,91.13,930.36,92.61Zm439.05-.28c-3.77-1.49-7.6-3-11.38-4.35l.7-1.9c3.8,1.4,7.64,2.87,11.43,4.35ZM953.13,84.16l-.67-1.92c3.82-1.33,7.7-2.64,11.54-3.89l.63,1.93C960.81,81.53,956.93,82.83,953.13,84.16Zm393.43-.29c-3.84-1.33-7.72-2.63-11.56-3.87l.63-1.93c3.85,1.24,7.75,2.55,11.6,3.88ZM976.22,76.64l-.59-1.94c3.88-1.18,7.81-2.33,11.7-3.41l.54,1.95C984,74.33,980.08,75.47,976.22,76.64Zm347.15-.28c-3.87-1.16-7.79-2.3-11.67-3.38l.55-2c3.89,1.09,7.83,2.23,11.7,3.4ZM999.6,70.08l-.51-2c3.93-1,7.91-2,11.82-2.93l.47,2C1007.48,68.08,1003.51,69.06,999.6,70.08ZM1300,69.83c-3.9-1-7.87-2-11.79-2.9l.47-2c3.93.93,7.91,1.91,11.83,2.92Zm-276.74-5.36-.43-2c3.94-.85,8-1.67,11.93-2.45l.39,2C1031.16,62.8,1027.16,63.62,1023.23,64.47Zm253.1-.2c-3.92-.84-7.92-1.66-11.89-2.43l.38-2c4,.77,8,1.59,11.94,2.43Zm-229.27-4.44-.34-2c4-.69,8-1.35,12-2l.31,2C1055.06,58.49,1051,59.14,1047.06,59.83Zm205.43-.17c-4-.68-8-1.33-12-1.93l.31-2c4,.61,8,1.26,12,1.94Zm-181.42-3.5-.27-2c4-.53,8.08-1,12.1-1.47l.23,2C1079.12,55.14,1075.06,55.64,1071.07,56.16ZM1228.48,56c-4-.52-8-1-12.06-1.45l.22-2c4,.44,8.09.93,12.1,1.45Zm-133.27-2.57-.19-2c4-.37,8.12-.7,12.14-1l.15,2C1103.3,52.78,1099.22,53.11,1095.21,53.47Zm109.13-.09c-4-.36-8.1-.68-12.11-1l.14-2c4,.27,8.11.6,12.15,1Zm-84.91-1.62-.11-2c4-.21,8.14-.37,12.18-.5l.06,2C1127.54,51.39,1123.45,51.55,1119.43,51.76Zm60.68,0c-4-.2-8.1-.36-12.13-.47l.06-2c4,.12,8.14.28,12.17.48Zm-36.42-.7,0-2q6.09-.06,12.19,0l0,2C1151.79,51,1147.73,51,1143.69,51Z"/><path class="cls-2" d="M1150.25,1205.16a555.16,555.16,0,0,1-216-1066.41,555.16,555.16,0,0,1,432.07,1022.8A551.54,551.54,0,0,1,1150.25,1205.16Zm0-1109c-305.47,0-554,248.52-554,554s248.53,554,554,554,554-248.53,554-554S1455.73,96.15,1150.25,96.15Z"/><path class="cls-3" d="M510.49,667l-17.92,15a4.12,4.12,0,0,1-2.4.91,3.18,3.18,0,0,1-2.39-.74l-14.74-13a65.62,65.62,0,0,1-10,3q-1.68,6.2-3.93,17.94a4,4,0,0,1-1.34,2.49,3.51,3.51,0,0,1-2.46.83,107.29,107.29,0,0,1-15.39-.71q-10.59-1-12.07-2.8a5.2,5.2,0,0,1-1-2.71l-.58-18.42a60,60,0,0,1-9.21-4.78q-12,7.88-17,10.2a3.54,3.54,0,0,1-4.69-1l-15-17.92a3.92,3.92,0,0,1-1-2.55,3.08,3.08,0,0,1,1-2.38l13-14.66a65,65,0,0,1-3.08-9.76l-18.14-4.17a3.73,3.73,0,0,1-2.41-1.41,3.6,3.6,0,0,1-.8-2.76q.7-17.85,2.43-24.64a4.14,4.14,0,0,1,1.39-2.12,4,4,0,0,1,2.39-.9c1.81-.14,4.74-.26,8.81-.37s7.18-.24,9.33-.39a52.26,52.26,0,0,1,5.23-10l-10.16-16.59A3.33,3.33,0,0,1,388,560a4,4,0,0,1,1.36-2.23l17.92-15a4,4,0,0,1,2.4-.91,3.21,3.21,0,0,1,2.33.66l14.8,13.12a51.91,51.91,0,0,1,10-3q1.91-7.08,3.93-17.94a3.93,3.93,0,0,1,1.26-2.43,4.51,4.51,0,0,1,2.46-.82,105.3,105.3,0,0,1,15.32.7q10.65,1,12.14,2.81a4.48,4.48,0,0,1,.95,2.77l.66,18.36a59.4,59.4,0,0,1,9.2,4.78q12.06-7.87,17-10.2a3.54,3.54,0,0,1,4.69,1l15,17.92a3.92,3.92,0,0,1,1,2.55,3.12,3.12,0,0,1-1,2.38l-13,14.66a65,65,0,0,1,3.08,9.76l18.21,4.25a3.38,3.38,0,0,1,2.34,1.33,4,4,0,0,1,.88,2.69q-.91,18.44-2.6,24.78a3.4,3.4,0,0,1-1.3,2,4,4,0,0,1-2.4.9c-1.8.14-4.74.26-8.8.37s-7.18.24-9.33.39a64.08,64.08,0,0,1-5.15,9.92l10.08,16.66a3.35,3.35,0,0,1,.41,2.53A4,4,0,0,1,510.49,667Zm-63-27.82a26.92,26.92,0,1,0-18.26-9.56A26,26,0,0,0,447.51,639.18Z"/><path class="cls-4" d="M1175.87,381.91l-25.57,21.36a5.77,5.77,0,0,1-3.42,1.29,4.57,4.57,0,0,1-3.42-1.05l-21-18.62a97.51,97.51,0,0,1-14.24,4.27q-2.4,8.83-5.6,25.59a5.86,5.86,0,0,1-1.92,3.57,5,5,0,0,1-3.52,1.17q-6.86.45-22-1t-17.22-4a7.35,7.35,0,0,1-1.47-3.86l-.84-26.29a86,86,0,0,1-13.13-6.82q-17.2,11.24-24.22,14.55a5,5,0,0,1-6.68-1.45L990.28,365a5.63,5.63,0,0,1-1.38-3.64,4.42,4.42,0,0,1,1.37-3.39l18.5-20.93a92.35,92.35,0,0,1-4.4-13.93l-25.89-5.94a5.37,5.37,0,0,1-3.44-2,5.15,5.15,0,0,1-1.14-3.93q1-25.49,3.48-35.18a6,6,0,0,1,2-3,5.86,5.86,0,0,1,3.42-1.29q3.87-.28,12.57-.52t13.32-.56a73.64,73.64,0,0,1,7.46-14.25l-14.5-23.68a4.74,4.74,0,0,1-.58-3.62A5.63,5.63,0,0,1,1003,226l25.57-21.36a5.84,5.84,0,0,1,3.42-1.3,4.54,4.54,0,0,1,3.33,1L1056.42,223a73.48,73.48,0,0,1,14.35-4.36q2.71-10.1,5.6-25.61a5.67,5.67,0,0,1,1.8-3.46,6.33,6.33,0,0,1,3.52-1.17q6.64-.48,21.86,1t17.32,4a6.36,6.36,0,0,1,1.36,4l1,26.19a87.41,87.41,0,0,1,13.13,6.83q17.2-11.23,24.22-14.55a5,5,0,0,1,6.68,1.45l21.36,25.57a5.67,5.67,0,0,1,1.38,3.64,4.46,4.46,0,0,1-1.37,3.4l-18.5,20.92a93.87,93.87,0,0,1,4.4,13.93l26,6.06a4.88,4.88,0,0,1,3.35,1.91,5.8,5.8,0,0,1,1.25,3.84q-1.29,26.31-3.7,35.36a4.83,4.83,0,0,1-1.87,2.92,5.76,5.76,0,0,1-3.41,1.29q-3.87.3-12.57.53t-13.32.56a90.7,90.7,0,0,1-7.34,14.15l14.38,23.78a4.73,4.73,0,0,1,.58,3.62A5.66,5.66,0,0,1,1175.87,381.91ZM1086,342.19a38.39,38.39,0,1,0-26.06-13.63A37,37,0,0,0,1086,342.19Z"/><path class="cls-5" d="M676.64,899.39V885.88h-216l-92.53-92.53-.17.24.17-.71H322.56L230.5,700.17H123.26a31.37,31.37,0,1,0,0,13.51H224.23l79.2,79.2H261.12a31.4,31.4,0,1,0,0,13.51H362.09l54.74,54.75H186.16a31.37,31.37,0,1,0,0,13.5H430.34l24.55,24.55.06-.09-.06.29H514l-79.49,79.48H333.57a31.4,31.4,0,1,0,0,13.51H440.81l-.15-.56,92.44-92.43Zm-584-174.54A17.87,17.87,0,1,1,110.52,707,17.89,17.89,0,0,1,92.64,724.85Zm137.85,92.72a17.88,17.88,0,1,1,17.88-17.88A17.9,17.9,0,0,1,230.49,817.57Zm-75,68.25A17.87,17.87,0,1,1,173.41,868,17.89,17.89,0,0,1,155.54,885.82Zm147.38,117.62a17.87,17.87,0,1,1,17.87-17.87A17.89,17.89,0,0,1,302.92,1003.44Z"/><path class="cls-5" d="M1601,626l92.44,92.44-.14.56H1800.6a31.35,31.35,0,1,0,0-13.52H1699.63L1620.14,626h59.11l-.07-.29.07.1,24.55-24.55H1948a31.39,31.39,0,1,0,0-13.51H1717.31L1772.05,533H1873a31.39,31.39,0,1,0,0-13.51H1830.7l79.2-79.2h100.94a31.39,31.39,0,1,0,0-13.51H1903.64l-92.06,92.71H1766l.17.71L1766,520l-92.52,92.52h-216V626Zm422.59-192.41a17.87,17.87,0,1,1,17.87,17.88A17.89,17.89,0,0,1,2023.62,433.61Zm-137.85,92.71a17.87,17.87,0,1,1,17.87,17.88A17.89,17.89,0,0,1,1885.77,526.32Zm75,68.26a17.88,17.88,0,1,1,17.88,17.87A17.89,17.89,0,0,1,1960.72,594.58ZM1813.34,712.21a17.88,17.88,0,1,1,17.87,17.87A17.9,17.9,0,0,1,1813.34,712.21Z"/><path class="cls-6" d="M1795.17,304.92H1639.82a9.89,9.89,0,0,0-9.9,9.89v12.86a9.9,9.9,0,0,0,9.9,9.9h22.76v269.7H662.2V455.87H682a9.89,9.89,0,0,0,9.9-9.89V433.12a9.9,9.9,0,0,0-9.9-9.9H624.34v-21.5H660a14.54,14.54,0,0,0,14.54-14.54V316A14.54,14.54,0,0,0,660,301.42H624.34v-40a14.54,14.54,0,0,0-14.54-14.54H593.09a14.54,14.54,0,0,0-14.54,14.54v40H561.84l-223.18-87-.19-.64-.85.24-15.2-5.93a4.8,4.8,0,0,0-2.35-5.16l-.42-.23a4.79,4.79,0,0,0-6.51,1.84L296,235.2a4.77,4.77,0,0,0,1.85,6.5l.42.24a4.76,4.76,0,0,0,3.58.43l13.81,10.41L316,254l.91-.26V961.5H306v65.93h13.12a2.48,2.48,0,0,0-.33,1.17v23.32A23.23,23.23,0,1,0,344.53,1075a2.5,2.5,0,0,0-5,0,18.25,18.25,0,1,1-18.25-18.25,2.48,2.48,0,0,0,2.49-2.49s0-.11,0-.16,0-.11,0-.16V1028.6a2.48,2.48,0,0,0-.33-1.17h13.08V961.5h-10.9V260.26L493.52,386.77v.41a14.54,14.54,0,0,0,14.54,14.54h70.49v21.5H526.64a9.89,9.89,0,0,0-9.89,9.9V446a9.89,9.89,0,0,0,9.89,9.89h22.75v151.4H526.64a9.89,9.89,0,0,0-9.89,9.89V630a9.89,9.89,0,0,0,9.89,9.89h22.75V886.31H526.64a9.89,9.89,0,0,0-9.89,9.89v12.86a9.9,9.9,0,0,0,9.89,9.9h22.75v305.12h23.76V1062.75a5.56,5.56,0,0,0,1.4-.9l34.22-29.7,29.68,25.76v166.17H662.2V919h549.44l.34,1.09h70.09l-.35-1.09h380.86v305.12h23.75V988.56a6.52,6.52,0,0,0,1.39-.91l34.22-29.7,29.69,25.76v240.37h23.75V337.57h19.79a9.89,9.89,0,0,0,9.89-9.9V314.81A9.89,9.89,0,0,0,1795.17,304.92ZM490,281.87l-44.58,12.66-9.59-33.78Zm-74.35-29-29.75,8.45-6.4-22.54Zm-50.29-19.61-19.72,5.6-4.24-14.94ZM320,246.14l-13.08-9.85,11.81-21.17L333.81,221l5.57,19.65Zm6.47,4.88,14.67-4.17,5.5,19.37Zm20.88-5.93L372.51,238l7.14,25.15-25.15,7.13Zm11.78,30.54,22.27-6.32,8.35,29.39Zm39.16,29.5-10.67-37.59,37.94-10.77,2.68,1,10.92,38.48L401,307.14Zm9.13,6.89,33.5-9.52,12.56,44.23Zm86.09,64.87-30.12-22.7,30.12-13.42Zm0-60.93V333.7l-32.86,14.65-13.51-47.61,47.6-13.52,2.56,19A14.45,14.45,0,0,0,493.52,316Zm14.54-14.54a14.48,14.48,0,0,0-4.77.82l-2.15-16,39,15.19ZM635.58,455.87l-26.81,23.27L582,455.87ZM573.15,464,599.71,487l-26.56,23.05Zm0,184.05,26.56,23L573.15,694.1Zm8.81-8.08h53.62l-26.81,23.27Zm-8.81,407.43v-46.1l26.57,23Zm65.3-5.15-20.63-17.9,20.63-17.91Zm0-51.52-29.68,25.76-34.22-29.7a5.85,5.85,0,0,0-1.4-.9V919h65.3Zm0-104.37h-65.3V709.48a6,6,0,0,0,1.4-.87l34.22-29.7,29.68,25.76Zm0-197.36-20.62-17.9,20.62-17.9Zm0-81.68h-65.3V525.44a5.76,5.76,0,0,0,1.4-.88l34.22-29.69,29.68,25.76Zm0-102.37L617.83,487l20.62-17.9ZM1662.58,886.31H662.2V639.92H1662.58Zm86.18-548.74L1722,360.84l-26.81-23.27Zm-62.43,8.07,26.56,23.06-26.56,23.05Zm0,302.36,26.56,23-26.56,23.05Zm8.81-8.08h53.61L1722,663.19Zm-8.81,333.21V927l26.55,23.05Zm8.8-54.17h53.63l-26.82,23.27Zm56.5,49L1731,950.09l20.62-17.9Zm0-81.67h-65.3V709.48a5.72,5.72,0,0,0,1.4-.87l34.22-29.7,29.68,25.76Zm0-197.36L1731,671.05l20.63-17.9Zm0-81.68h-65.3V407.13a6,6,0,0,0,1.4-.87l34.22-29.7,29.68,25.76Zm0-220.68L1731,368.7l20.63-17.9Z"/><path class="cls-7" d="M2089.79,1209.59a26.72,26.72,0,0,1-26.73,26.72H26.72A26.72,26.72,0,0,1,0,1209.59H0a26.72,26.72,0,0,1,26.72-26.72H2063.06a26.72,26.72,0,0,1,26.73,26.72Z"/><path class="cls-8" d="M1562.64,345.83H541.45a45.61,45.61,0,0,0-45.62,45.61V943.18H1608.25V391.44A45.61,45.61,0,0,0,1562.64,345.83Z"/><rect class="cls-9" x="532.29" y="390.33" width="1035.91" height="507.69"/><path class="cls-5" d="M495.83,993.35A45.62,45.62,0,0,0,541.45,1039H1562.64a45.62,45.62,0,0,0,45.61-45.62V943.18H495.83Z"/><path class="cls-5" d="M1161.78,1127.29V1039H940.09v88.32c0,27.37-59,54.54-59,64.42A17.89,17.89,0,0,0,899,1209.59h301.8a17.89,17.89,0,0,0,17.88-17.88C1218.68,1181.83,1161.78,1152.84,1161.78,1127.29Z"/><rect class="cls-10" x="940.09" y="1038.97" width="221.69" height="28.74"/><path class="cls-5" d="M984.48,108.69a4.32,4.32,0,0,1,.2,1.1c0,.42,0,.81,0,1.18a10.89,10.89,0,0,1-.31,2.66,6.13,6.13,0,0,1-1,2.19,5.23,5.23,0,0,1-1.84,1.53,6.22,6.22,0,0,1-2.86.59,8,8,0,0,1-3.25-.71q-1.61-.7-4-2l-16.83-9.71a11.26,11.26,0,0,1-2-7,11.26,11.26,0,0,1,.94-5.09,6.79,6.79,0,0,1,2.75-2.82L977.83,78c2.56.68,4.29,1.6,5.21,2.78a6.08,6.08,0,0,1,1.37,3.8A6.16,6.16,0,0,1,983,88.84a13.54,13.54,0,0,1-4,2.86l-13.78,7Z"/><path class="cls-5" d="M1030.06,133a11.62,11.62,0,0,1-.94-2.15,9.15,9.15,0,0,1-.47-2.94c0-1.93.44-3.32,1.33-4.15a4.7,4.7,0,0,1,3.37-1.25H1067c.26.52.58,1.24.94,2.15a7.73,7.73,0,0,1,.55,2.94c0,1.93-.44,3.31-1.33,4.15a4.86,4.86,0,0,1-3.45,1.25Z"/><path class="cls-5" d="M1121.06,126.55c-.74.1-1.44.17-2.12.2l-1.88,0a7.91,7.91,0,0,1-5-1.41c-1.18-.93-1.76-2.45-1.76-4.54a15.06,15.06,0,0,1,.63-4.26c.41-1.44.78-2.71,1.09-3.8L1125.75,63c.79-.1,1.52-.17,2.2-.2l1.88,0a8.32,8.32,0,0,1,5,1.33,4.94,4.94,0,0,1,1.84,4.3,14.49,14.49,0,0,1-.63,4.31c-.42,1.36-.81,2.72-1.17,4.07Z"/><path class="cls-5" d="M1178.69,87.24a4.32,4.32,0,0,1-.2-1.1c0-.42,0-.81,0-1.17a11,11,0,0,1,.32-2.67,6.13,6.13,0,0,1,1-2.19,5.45,5.45,0,0,1,1.84-1.53,6.15,6.15,0,0,1,2.85-.58,8,8,0,0,1,3.25.7q1.61.7,4,2l16.84,9.71a11.33,11.33,0,0,1,2,7,11.15,11.15,0,0,1-.94,5.09,6.77,6.77,0,0,1-2.74,2.82l-21.53,12.53q-3.84-1-5.21-2.78a6.1,6.1,0,0,1-1.37-3.8,6.19,6.19,0,0,1,1.37-4.27,13.48,13.48,0,0,1,4-2.86l13.78-7Z"/><rect class="cls-5" x="842.77" y="390.33" width="725.44" height="507.69"/><rect class="cls-11" x="1329.66" y="573.5" width="199.49" height="132.21"/><rect class="cls-12" x="532.29" y="390.33" width="310.48" height="80.74"/><path class="cls-13" d="M586.54,430.69a18.25,18.25,0,1,1-18.25-18.24A18.25,18.25,0,0,1,586.54,430.69Z"/><path class="cls-11" d="M641.28,430.69A18.25,18.25,0,1,1,623,412.45,18.25,18.25,0,0,1,641.28,430.69Z"/><path class="cls-6" d="M696,430.69a18.25,18.25,0,1,1-18.25-18.24A18.25,18.25,0,0,1,696,430.69Z"/><path class="cls-6" d="M641.28,494.13a10,10,0,0,1-10,10H560.08a10,10,0,0,1-10-10h0a10,10,0,0,1,10-10h71.16a10,10,0,0,1,10,10Z"/><path class="cls-6" d="M641.28,814.34a10,10,0,0,1-10,10H560.08a10,10,0,0,1-10-10h0a10,10,0,0,1,10-10h71.16a10,10,0,0,1,10,10Z"/><path class="cls-11" d="M669.56,531.53a10,10,0,0,1-10,10h-44.7a10,10,0,0,1-10-10h0a10,10,0,0,1,10-10h44.7a10,10,0,0,1,10,10Z"/><path class="cls-11" d="M669.56,846.28a10,10,0,0,1-10,10h-44.7a10,10,0,0,1-10-10h0a10,10,0,0,1,10-10h44.7a10,10,0,0,1,10,10Z"/><path class="cls-14" d="M811.88,563.47a10,10,0,0,1-10,10h-187a10,10,0,0,1-10-10h0a10,10,0,0,1,10-10h187a10,10,0,0,1,10,10Z"/><path class="cls-14" d="M713.35,594.49a10,10,0,0,1-10,10H614.82a10,10,0,0,1-10-10h0a10,10,0,0,1,10-10h88.49a10,10,0,0,1,10,10Z"/><path class="cls-14" d="M811.88,594.49a10,10,0,0,1-10,10H729.77a10,10,0,0,1-10-10h0a10,10,0,0,1,10-10h72.08a10,10,0,0,1,10,10Z"/><path class="cls-14" d="M664.54,623.68a10,10,0,0,1-10,10H614.82a10,10,0,0,1-10-10h0a10,10,0,0,1,10-10H654.5a10,10,0,0,1,10,10Z"/><path class="cls-14" d="M811.88,623.68a10,10,0,0,1-10,10H682.79a10,10,0,0,1-10-10h0a10,10,0,0,1,10-10H801.85a10,10,0,0,1,10,10Z"/><path class="cls-11" d="M669.56,660.17a10,10,0,0,1-10,10h-44.7a10,10,0,0,1-10-10h0a10,10,0,0,1,10-10h44.7a10,10,0,0,1,10,10Z"/><path class="cls-11" d="M669.56,784.7a10,10,0,0,1-10,10h-44.7a10,10,0,0,1-10-10h0a10,10,0,0,1,10-10h44.7a10,10,0,0,1,10,10Z"/><path class="cls-14" d="M811.88,692.1a10,10,0,0,1-10,10h-187a10,10,0,0,1-10-10h0a10,10,0,0,1,10-10h187a10,10,0,0,1,10,10Z"/><path class="cls-14" d="M713.35,723.12a10,10,0,0,1-10,10H614.82a10,10,0,0,1-10-10h0a10,10,0,0,1,10-10h88.49a10,10,0,0,1,10,10Z"/><path class="cls-14" d="M811.88,723.12a10,10,0,0,1-10,10H729.77a10,10,0,0,1-10-10h0a10,10,0,0,1,10-10h72.08a10,10,0,0,1,10,10Z"/><path class="cls-14" d="M664.54,752.31a10,10,0,0,1-10,10H614.82a10,10,0,0,1-10-10h0a10,10,0,0,1,10-10H654.5a10,10,0,0,1,10,10Z"/><path class="cls-14" d="M811.88,752.31a10,10,0,0,1-10,10H682.79a10,10,0,0,1-10-10h0a10,10,0,0,1,10-10H801.85a10,10,0,0,1,10,10Z"/><path class="cls-14" d="M664.54,876.84a10,10,0,0,1-10,10H614.82a10,10,0,0,1-10-10h0a10,10,0,0,1,10-10H654.5a10,10,0,0,1,10,10Z"/><path class="cls-14" d="M811.88,876.84a10,10,0,0,1-10,10H682.79a10,10,0,0,1-10-10h0a10,10,0,0,1,10-10H801.85a10,10,0,0,1,10,10Z"/><rect class="cls-9" x="876.55" y="422.05" width="658.31" height="119.52"/><rect class="cls-6" x="876.55" y="573.5" width="132.21" height="132.21"/><path class="cls-15" d="M1186.9,590.55c0,3.37-2.25,6.1-5,6.1H1038.62c-2.78,0-5-2.73-5-6.1h0c0-3.37,2.26-6.1,5-6.1h143.24c2.79,0,5,2.73,5,6.1Z"/><path class="cls-15" d="M1297.3,629.31c0,3.37-2.26,6.1-5,6.1H1038.62c-2.78,0-5-2.73-5-6.1h0c0-3.37,2.26-6.1,5-6.1h253.64c2.78,0,5,2.73,5,6.1Z"/><path class="cls-15" d="M1297.3,652.75c0,3.37-2.26,6.1-5,6.1H1038.62c-2.78,0-5-2.73-5-6.1h0c0-3.37,2.26-6.11,5-6.11h253.64c2.78,0,5,2.74,5,6.11Z"/><path class="cls-15" d="M1297.3,676.18c0,3.37-2.26,6.1-5,6.1H1038.62c-2.78,0-5-2.73-5-6.1h0c0-3.37,2.26-6.1,5-6.1h253.64c2.78,0,5,2.73,5,6.1Z"/><path class="cls-15" d="M1297.3,699.61c0,3.37-2.26,6.1-5,6.1H1038.62c-2.78,0-5-2.73-5-6.1h0c0-3.37,2.26-6.1,5-6.1h253.64c2.78,0,5,2.73,5,6.1Z"/><path class="cls-13" d="M1081.59,800a50.85,50.85,0,1,1-50.85-50.84A50.85,50.85,0,0,1,1081.59,800Z"/><path class="cls-9" d="M1216.28,800a50.84,50.84,0,1,1-50.84-50.84A50.85,50.85,0,0,1,1216.28,800Z"/><path class="cls-6" d="M1351,800a50.85,50.85,0,1,1-50.84-50.84A50.85,50.85,0,0,1,1351,800Z"/><path class="cls-16" d="M1495,652.75a67,67,0,1,1-67-67A67,67,0,0,1,1495,652.75Z"/><polygon class="cls-5" points="1410.24 617.14 1410.24 688.35 1464.22 652.75 1410.24 617.14"/><polygon class="cls-17" points="1929.46 826.98 1879.86 837.87 1955.33 870.68 1929.46 826.98"/><rect class="cls-18" x="1882.27" y="836.28" width="49.9" height="81.34" transform="translate(343.17 2277.06) rotate(-66.53)"/><rect class="cls-5" x="1879.91" y="844.89" width="57.77" height="56.89" transform="translate(347.43 2276.32) rotate(-66.53)"/><polygon class="cls-19" points="1907.13 877.39 1859.63 884.4 1879.86 837.87 1907.13 877.39"/><polygon class="cls-19" points="1907.83 877.69 1935.09 917.21 1955.32 870.68 1907.83 877.69"/><polygon class="cls-10" points="1909.74 872.32 1859.71 884.21 1935.17 917.02 1909.74 872.32"/><polygon class="cls-20" points="1909.31 873.33 1859.71 884.21 1935.17 917.02 1909.31 873.33"/><path class="cls-21" d="M578,131.22a4.93,4.93,0,0,1-1.49,3.61L538,173.31l-7.23,7.22a5.12,5.12,0,0,1-7.22,0l-7.23-7.22-19.24-19.24a5.13,5.13,0,0,1,0-7.23l7.23-7.23a5.15,5.15,0,0,1,7.23,0l15.62,15.68,34.86-34.91a5.13,5.13,0,0,1,7.23,0l7.23,7.22A5,5,0,0,1,578,131.22Z"/><path class="cls-21" d="M1283.89,190.1c-1.28-.14-2.58-.24-3.86-.29-.44,0-.92,0-1.5,0H1276c-19.53.08-36.49,6.75-50.4,19.83-1.9,1.78-2.19,4.14-.7,5.74a3.15,3.15,0,0,0,2.35,1,4.9,4.9,0,0,0,3.27-1.39c7.77-7.3,15.87-12.12,24.76-14.73a77,77,0,0,1,21.63-3.29c16.27,0,31.21,6,44.4,18a5.15,5.15,0,0,0,3.38,1.45,3.08,3.08,0,0,0,2.33-1,3.17,3.17,0,0,0,1-2.37,5.07,5.07,0,0,0-1.79-3.45A72,72,0,0,0,1283.89,190.1Z"/><path class="cls-21" d="M1311.67,227c-10.28-9.75-22.24-14.56-36.57-14.7A50.58,50.58,0,0,0,1241.44,226c-2.68,2.42-2.87,3.85-2.3,5.5a3.17,3.17,0,0,0,3.12,2.11,5.33,5.33,0,0,0,3.51-1.51,52.49,52.49,0,0,1,10.91-7.73,42.55,42.55,0,0,1,19.42-4.74,43,43,0,0,1,30,12.26,5.54,5.54,0,0,0,3.72,1.75,3.13,3.13,0,0,0,3-2.23C1313.27,230.2,1313.49,228.76,1311.67,227Z"/><path class="cls-21" d="M1277.1,235.06c-9,.07-16,2.83-21.85,8.69-1.69,1.69-1.93,4.05-.55,5.51a3.33,3.33,0,0,0,2.47,1.08,4.66,4.66,0,0,0,3.13-1.37c4.65-4.4,10.06-6.72,15.66-6.72s11.18,2.4,15.9,6.93a4.11,4.11,0,0,0,2.83,1.2,3.37,3.37,0,0,0,2.36-.94,3.54,3.54,0,0,0,.2-4.94A27.13,27.13,0,0,0,1277.1,235.06Z"/><path class="cls-21" d="M1271,263.47a5,5,0,1,0,10,0,4.78,4.78,0,0,0-1.42-3.4,5,5,0,0,0-3.58-1.5h0A5,5,0,0,0,1271,263.47Z"/><path class="cls-22" d="M732.65,124.83a37.08,37.08,0,0,0-31.18-30.91c-.86-.13-1.73-.23-2.6-.34H694c-1,.14-2,.26-3,.41a37,37,0,0,0-30.59,29.47A36.51,36.51,0,0,0,719,158.93a36.15,36.15,0,0,0,13.6-22.76c.21-1.17.33-2.35.49-3.53v-4.86C732.93,126.8,732.81,125.81,732.65,124.83ZM695,116.21q0,5.92,0,11.87c0,.46-.08.68-.62.68q-6.76,0-13.52,0l-.5,0c.07-1.47,0-2.88.23-4.26.46-3.27,1-6.53,1.55-9.79.06-.37.19-.56.61-.47a68,68,0,0,0,11.9,1.37c.09,0,.18,0,.3.07C695,115.83,695,116,695,116.21Zm-4.41-17.4a8.66,8.66,0,0,1,4.36-2v15.81a58.22,58.22,0,0,1-11.9-1.35c.66-1.61,1.25-3.24,2-4.79A21.21,21.21,0,0,1,690.56,98.81Zm-3-1.06a35.75,35.75,0,0,0-7.16,12.88,40.69,40.69,0,0,1-8.74-3.34A32.78,32.78,0,0,1,687.51,97.75Zm-18,12,9.94,3.85a65,65,0,0,0-2.07,15h-14.6A33.47,33.47,0,0,1,669.52,109.79Zm0,40.83a33.53,33.53,0,0,1-6.74-18.91h14.6a65.81,65.81,0,0,0,2.08,15.07Zm2.13,2.48a41.68,41.68,0,0,1,8.69-3.32c1.64,4.71,3.73,9.15,7.22,12.84C683.92,162.54,675,157.23,671.65,153.1Zm23.27,10.68c-.63-.21-1.24-.37-1.81-.61a12.65,12.65,0,0,1-4.62-3.62,30.93,30.93,0,0,1-5.41-10.4,64.58,64.58,0,0,1,11.84-1.34Zm.05-19.43a3.18,3.18,0,0,1-.06.47c-1.38.09-2.77.12-4.13.28q-3.9.47-7.77,1.08c-.63.1-.81,0-1-.63a63.21,63.21,0,0,1-1.68-13.36,4.3,4.3,0,0,1,0-.46c.2,0,.38,0,.56,0h13.31c.43,0,.69,0,.69.6C695,136.3,695,140.33,695,144.35Zm26.29-37.06a40.9,40.9,0,0,1-8.59,3.31c-1-2.27-2-4.54-3.08-6.74a27.07,27.07,0,0,0-4.22-6.09A32.61,32.61,0,0,1,721.26,107.29Zm-8.77,20.86c0,.16,0,.33,0,.56H698V115.59c1.35-.08,2.7-.11,4-.27,2.65-.32,5.28-.69,7.92-1.09.54-.09.72,0,.86.56A63.32,63.32,0,0,1,712.49,128.15ZM698,96.64c.63.21,1.24.37,1.81.61a13.44,13.44,0,0,1,5.25,4.41,32.17,32.17,0,0,1,4.76,9.58A59.37,59.37,0,0,1,698,112.57Zm-.06,35.72c0-.44,0-.7.6-.69,4.5,0,9,0,13.51,0a5.18,5.18,0,0,1,.52.06c-.07,1.42,0,2.83-.23,4.21-.46,3.27-1,6.53-1.54,9.79-.07.41-.23.58-.67.48a65.1,65.1,0,0,0-11.4-1.34l-.74,0c0-.23-.05-.42-.05-.6C697.9,140.27,697.91,136.32,697.9,132.36Zm4.84,28.87a10.31,10.31,0,0,1-4.32,2.4,3.47,3.47,0,0,1-.47.08v-15.9a65.57,65.57,0,0,1,11.92,1.35c-.67,1.63-1.27,3.22-2,4.76A21.57,21.57,0,0,1,702.74,161.23Zm2.61,1.43a35.55,35.55,0,0,0,7.17-12.88,41.77,41.77,0,0,1,8.74,3.34A32.62,32.62,0,0,1,705.35,162.66Zm18-12-9.94-3.84a65.33,65.33,0,0,0,2.07-15h14.6A33.4,33.4,0,0,1,723.35,150.62Zm-7.86-21.91a65.12,65.12,0,0,0-2.09-15.07l10-3.85a33.56,33.56,0,0,1,6.74,18.92Z"/><polygon class="cls-23" points="1555.21 1042.77 1614.63 1042.77 1605.9 995.18 1608.65 942.46 1561.56 942.46 1565.38 993.37 1555.21 1042.77"/><path class="cls-24" d="M1578,943.59a7.15,7.15,0,0,0,7.15,7.15h0a7.15,7.15,0,0,0,7.15-7.15V935a7.15,7.15,0,0,0-7.15-7.15h0A7.15,7.15,0,0,0,1578,935Z"/><path class="cls-24" d="M1550.82,914.28a26,26,0,0,0,52,0c0-14.36-11.65-26.6-26-26C1546.64,889.57,1566.87,917.24,1550.82,914.28Z"/><rect class="cls-16" x="1555.21" y="1042.77" width="59.41" height="20.9"/><polygon class="cls-16" points="1604.63 1120.98 1590.39 1120.98 1589.08 1063.67 1614.36 1063.67 1604.63 1120.98"/><polygon class="cls-16" points="1644.51 1178.85 1636.91 1184.42 1590.41 1120.99 1601.89 1112.58 1644.51 1178.85"/><path class="cls-5" d="M1557.15,926.06h11.16C1568.81,931.05,1561.43,936.35,1557.15,926.06Z"/><polygon class="cls-16" points="1571.16 1120.98 1556.92 1120.98 1555.6 1063.67 1580.89 1063.67 1571.16 1120.98"/><polygon class="cls-16" points="1566.35 1199.63 1556.92 1199.63 1556.92 1120.98 1571.16 1120.98 1566.35 1199.63"/><path class="cls-11" d="M1556.92,1199.62c-8.19,11.38-26.12,7.55-26.12,18.92h26.12v-.14s1.42-7.87,3.08-7.87a3,3,0,0,1,3,3l-.08,5h3.43v-19.43Z"/><path class="cls-23" d="M1524.42,978.5c-3.11-4.69-5.1-7.44,1.76-13.14,9.67-8.05,21.88-14,27.29-17.91s11.16-9.22,17.41.86c3.65,5.9-.34,11.8-4.88,14.81l-29.4,17.37c-4.53,3-9.06,2.7-12.18-2Z"/><polygon class="cls-23" points="1523 918.19 1539.45 976.71 1521.63 973.04 1517.25 919.58 1523 918.19"/><path class="cls-24" d="M1527.52,904.82c2.26-5.65-14.46-8.42-17-2.91s-1.9,13.87,3.61,16.44,9.79.63,14-3.91C1533.51,908.51,1525.13,910.8,1527.52,904.82Z"/><path class="cls-25" d="M1565.36,883.31c13.21-4.16,22.39-5.61,31.91-3.78a28.44,28.44,0,0,1-5.42,55,25.32,25.32,0,0,0,.23-6.17,23.71,23.71,0,0,0-.61-3.8,7.62,7.62,0,0,0,3.69.6,7.74,7.74,0,1,0-8.09-9.85c-1-2.46-3.46-3.75-6.31-5.12-5-2.4-11.27-5-13.12-14.66-10.84,2.18-8.66,9.26-10.72,10.51C1552.9,897.18,1556,886.26,1565.36,883.31Z"/><path class="cls-25" d="M1607.28,896.63c9.22,14,20.28,1.62,24.58,17.15,6-7.31,7.81-17.95,4.84-25.51-2.85-7.24-8-10.82-15.94-11.59C1604.27,875.08,1602.81,889.84,1607.28,896.63Z"/><path class="cls-11" d="M1636.91,1184.42c.11,14-16.61,21.53-9.89,30.7l21.07-15.45-.08-.1s-3.51-7.19-2.17-8.17a3,3,0,0,1,4.21.65l2.89,4.07,2.76-2-11.48-15.67Z"/><path class="cls-26" d="M1563.28,893.55c-.71-2.41-5.89-.16-5.89-2.79,0-21.94,16.68-31.36,31.35-31.36a26.58,26.58,0,0,1,25.47,34.15Z"/><rect class="cls-7" x="1557.46" y="885.97" width="57.43" height="4.73"/><path class="cls-26" d="M1546.11,890.7a3,3,0,0,0,3,3H1615a3,3,0,0,0,3-3h0a3,3,0,0,0-3-3h-65.83a3,3,0,0,0-3,3Z"/><polygon class="cls-5" points="1538.72 959.21 1452.3 980.53 1428.25 883.06 1484.61 869.15 1521.02 887.47 1538.72 959.21"/><path class="cls-9" d="M1516.9,881.25a15.77,15.77,0,0,1,6.25,8.49l16.41,66.48a5.68,5.68,0,0,1-4.18,6.9l-77.55,19.14a5.68,5.68,0,0,1-6.9-4.17l-22.79-92.33a5.54,5.54,0,0,1,.65-4.32,5.48,5.48,0,0,1,3.53-2.58L1484,866.1a15.8,15.8,0,0,1,10.43,1.59Zm14.81,74.94-14.57-59.08-24,5.92a5.68,5.68,0,0,1-6.9-4.17l-5.93-24L1436,885.79l21.87,88.63Zm-57.45-28.43a11.49,11.49,0,0,1-15.7,3.88,11.48,11.48,0,0,1-3.87-15.7,11.43,11.43,0,0,1,19.57,11.82Zm43.69,4.4,4.56,18.47-59.09,14.58-2.73-11.08,8.34-13.81,9.21,5.56,16.69-27.63Zm-30.15-58.67,5.36,21.7,21.69-5.36a6.57,6.57,0,0,0-1.85-2.05l-22.52-13.61A6.67,6.67,0,0,0,1487.8,873.49Z"/><path class="cls-24" d="M1513.32,964.7c-3.88-4.68-14.28,8.7-10.67,13.58s11.29,8.28,16.17,4.66,5.22-8.3,3.22-14.13C1519.42,961.19,1517.43,969.65,1513.32,964.7Z"/><path class="cls-7" d="M1564.31,998.58s26.93,20,32.28,14.66,9.31-18.06,9.31-18.06l2.06-39.47s-20.94,25.23-24.08,28.75-19.16,0-19.16,0Z"/><path class="cls-23" d="M1586.73,1008.08c-5.11-2.38-8.25-3.66-4.39-14.23,5.43-14.89,14.4-34.57,17.71-42.33s6.16-12.13,16.71-6.69c6.17,3.18,5.11,11.87,2.21,18.11l-19.81,38.31c-2.9,6.24-7.33,9.2-12.43,6.83Z"/><polygon class="cls-23" points="1522.92 975.04 1593.64 991.08 1589.14 1008.89 1521.41 980.76 1522.92 975.04"/><polygon class="cls-27" points="838.66 724.5 781.55 724.5 779.14 631.27 834.08 631.27 838.66 724.5"/><path class="cls-24" d="M816.72,632.36a6.88,6.88,0,0,1-6.88,6.87h0a6.87,6.87,0,0,1-6.87-6.87v-8.22a6.86,6.86,0,0,1,6.87-6.87h0a6.87,6.87,0,0,1,6.88,6.87Z"/><path class="cls-24" d="M842.88,604.18a25,25,0,0,1-50,0c0-13.8,11.2-25.57,25-25C846.9,580.43,827.45,607,842.88,604.18Z"/><path class="cls-27" d="M874.59,620.3c-3.33-4.27-8.74-4.64-17.82.92-12.83,7.87-33.47,11.66-33.47,11.66-15.95,6.84-9.1,22.26-1.88,27.14,4.44,3,12.58,4.24,17.8.19l37.15-28.88c1.23-1.82,1.54-6.75-1.78-11Z"/><rect class="cls-25" x="781.55" y="724.5" width="57.11" height="23.28"/><path class="cls-28" d="M862.49,896.64H828.31V878l9.08.49C845.26,889.4,859.83,874.24,862.49,896.64Z"/><polygon class="cls-25" points="823.7 802.87 837.39 802.87 838.65 747.78 814.34 747.78 823.7 802.87"/><polygon class="cls-25" points="828.33 878.47 837.39 878.47 837.39 802.87 823.7 802.87 828.33 878.47"/><rect class="cls-28" x="828.31" y="894.07" width="34.18" height="2.58"/><path class="cls-28" d="M796.23,896.64H762.05V878l9.08.49C779,889.4,793.57,874.24,796.23,896.64Z"/><rect class="cls-28" x="762.05" y="894.07" width="34.18" height="2.58"/><polygon class="cls-25" points="792.27 808.25 805.58 810.06 805.86 747.78 781.55 747.78 792.27 808.25"/><polygon class="cls-25" points="762.05 877.97 771.13 878.47 805.58 810.06 793 804.69 762.05 877.97"/><path class="cls-5" d="M831.89,615.84H821.13C820.65,620.65,827.77,625.76,831.89,615.84Z"/><path class="cls-29" d="M839.6,573.38c-4.3,2.14-5.09,3.7-14,1.71-12.59-2.83-30.22-2.62-29.92-1A26.49,26.49,0,0,0,805,624.71a23.11,23.11,0,0,1-.43-9.27A7.21,7.21,0,1,1,808,606.5a21.58,21.58,0,0,0,.69-11.32c7.38.82,13.8,2.09,24-1C842,591,846.38,583.35,839.6,573.38Z"/><polygon class="cls-10" points="800.64 664.97 780.79 695.17 800.64 677.89 814.34 678.79 822.89 673.24 800.64 664.97"/><path class="cls-27" d="M773.53,698.35c5.41.25,9.21-3.63,10.87-14.14,2.35-14.87,12.87-33,12.87-33,5.16-16.57-9.72-22.23-18.13-19.91-5.16,1.43-12.68,7.67-13,14.28l-1.86,40.39c-.3,6.6,3.83,12.16,9.24,12.41Z"/><polygon class="cls-24" points="797.74 663.12 764.29 685.94 781 694.46 800.64 667.09 797.74 663.12"/><path class="cls-28" d="M804.18,672.68a3.59,3.59,0,0,0,4.65,2l12.71-5.05a3.58,3.58,0,0,0,2-4.65l-13.24-33.34a3.58,3.58,0,0,0-4.65-2L793,634.69a3.58,3.58,0,0,0-2,4.65Z"/><path class="cls-28" d="M800.16,637.93a1.44,1.44,0,0,0,1.86.79,1.43,1.43,0,0,0-1-2.65A1.44,1.44,0,0,0,800.16,637.93Z"/><path class="cls-28" d="M801.94,640a.57.57,0,0,0,1-.42.58.58,0,0,0-.74-.32A.57.57,0,0,0,801.94,640Z"/><path class="cls-24" d="M803,651.6c1.77-5.33,15.22,2.68,13.76,8.1s-6.93,10.93-12.35,9.46-7.29-5.39-7.53-11.08C796.57,650.64,801.12,657.25,803,651.6Z"/><polygon class="cls-24" points="907.21 597.01 861.56 618.68 870.79 635.67 910.92 604.07 907.21 597.01"/><path class="cls-24" d="M924.06,582.37c2-.8,3.19.07,3.9,1.76.4,1-5.48,4.16-5.39,5.51.18,2.56,3.37,5.15,2.8,7.37-1.39,5.44-5.23,10.47-10.66,9.08s-7.37-5.29-7.69-11C906.61,587.68,919.33,584.31,924.06,582.37Z"/><path class="cls-26" d="M837.57,587.88c.82-2.73,6.72-.17,6.72-3.17,0-25-19-35.72-35.72-35.72a30.25,30.25,0,0,0-29,38.89Z"/><rect class="cls-7" x="778.8" y="579.25" width="65.41" height="5.39"/><path class="cls-26" d="M857.12,584.64a3.44,3.44,0,0,1-3.44,3.44h-75a3.44,3.44,0,0,1-3.44-3.44h0a3.44,3.44,0,0,1,3.44-3.44h75a3.44,3.44,0,0,1,3.44,3.44Z"/><path class="cls-6" d="M1796.54,183.11h-42.28V135.66A17.25,17.25,0,0,0,1737,118.41h-19.84a17.25,17.25,0,0,0-17.25,17.25v47.45h-19.84L1415.17,79.83l-.22-.77-1,.28-18-7a5.72,5.72,0,0,0-2.8-6.13l-.49-.27a5.69,5.69,0,0,0-7.73,2.19l-20.3,36.4a5.68,5.68,0,0,0,2.2,7.72l.5.28a5.64,5.64,0,0,0,4.25.51l16.39,12.36.41,1.42,1.08-.31V459.41h-13v78.26H1392a3,3,0,0,0-.39,1.38v27.68a27.57,27.57,0,1,0,30.53,27.41,3,3,0,0,0-5.91,0,21.67,21.67,0,1,1-21.66-21.66,3,3,0,0,0,3-3,1.36,1.36,0,0,0,0-.2,1.1,1.1,0,0,0,0-.18v-30.1a2.83,2.83,0,0,0-.39-1.38h15.53V459.41h-12.94V134.25L1599,284.42v.48a17.26,17.26,0,0,0,17.26,17.26l197.55,0V200.36A17.25,17.25,0,0,0,1796.54,183.11ZM1594.76,159.9l-52.91,15-11.38-40.09Zm-88.25-34.41-35.31,10-7.6-26.76Zm-59.7-23.28-23.4,6.65-5-17.73ZM1393,117.49l-15.53-11.7,14-25.12,17.89,7L1416,111Zm7.67,5.78,17.42-4.94,6.52,23Zm24.79-7,29.85-8.48,8.48,29.85L1434,146.08Zm14,36.25,26.43-7.51,9.9,34.89Zm46.48,35-12.68-44.62,45-12.78,3.17,1.23,13,45.68-45.35,12.87Zm10.83,8.17,39.76-11.29,14.91,52.49Zm102.18,77-35.75-26.94L1599,229.81Zm0-72.32v21.06l-39,17.39-16-56.52,56.51-16,3,22.52A17.21,17.21,0,0,0,1599,200.36Zm17.26-17.25a17.06,17.06,0,0,0-5.65,1l-2.56-19,46.26,18Z"/><path class="cls-6" d="M838,255l11.28,27a2.81,2.81,0,0,1,0,2.24,2.89,2.89,0,0,1-1.58,1.6L835.4,291a3,3,0,0,1-3.85-1.57l-11.27-27a2.77,2.77,0,0,1,0-2.24,2.86,2.86,0,0,1,1.58-1.6l12.26-5.12a2.86,2.86,0,0,1,2.26,0A2.78,2.78,0,0,1,838,255Zm2.21,24.46a2.76,2.76,0,0,0-1.6-1.56,2.84,2.84,0,0,0-2.25,0,2.79,2.79,0,0,0-1.6,1.61,2.94,2.94,0,0,0,5.45,2.21A2.78,2.78,0,0,0,840.19,279.44Zm48.2-45.5a10,10,0,0,1,.29,7.27,10.83,10.83,0,0,1,2,2.94,9.43,9.43,0,0,1,.59,6.55,9.31,9.31,0,0,1,2.06,4.94,8.87,8.87,0,0,1-.64,4.93q2.36,4.57,1.1,8.51-1.38,4.35-7,6.79l-1.53.64L882,277.86l-.72.31a35,35,0,0,1-6.41,1.9,56.55,56.55,0,0,1-5.68.94c-1.39.13-3.34.29-5.83.47-4,.25-6.49.56-7.5.95a3,3,0,0,1-2.26,0,2.7,2.7,0,0,1-1.59-1.53l-11.3-27.07a2.77,2.77,0,0,1,0-2.15,3.07,3.07,0,0,1,1.47-1.64q1-.51,2.19-3.84c.81-2.22,1.54-4.52,2.17-6.9a68.39,68.39,0,0,1,2.19-6.87,6.78,6.78,0,0,0,.47-2.57,14.09,14.09,0,0,0-.11-2.36c-.09-.57-.25-1.51-.49-2.79s-.44-2.12-.54-2.8a14.22,14.22,0,0,1-.09-2.55,7.92,7.92,0,0,1,.57-2.71,2.83,2.83,0,0,1,1.58-1.6,13.85,13.85,0,0,1,3.7-1,10,10,0,0,1,3,0,6.45,6.45,0,0,1,2.42,1A10.49,10.49,0,0,1,861,216.5a11.57,11.57,0,0,1,1.4,1.9c.47.79.81,1.39,1,1.81s.43,1,.71,1.63a13.7,13.7,0,0,1,.93,3.39,18.08,18.08,0,0,1,.25,2.87q0,1.1-.18,2.85c0,.21,0,.51-.11.94A6.61,6.61,0,0,0,865,233c0,.33,0,.71.08,1.16l11.79-4.92a8.54,8.54,0,0,1,6.76,0A8.39,8.39,0,0,1,888.39,233.94Z"/><polygon class="cls-30" points="1703.95 151.24 1755.08 151.24 1757.23 67.78 1704.17 67.78 1703.95 151.24"/><path class="cls-24" d="M1724.44,68.75a6.15,6.15,0,0,0,6.15,6.16h0a6.15,6.15,0,0,0,6.15-6.16V61.4a6.15,6.15,0,0,0-6.15-6.16h0a6.15,6.15,0,0,0-6.15,6.16Z"/><path class="cls-21" d="M1676.85,280.91l38.29-4.72-2.58-20.92-10.1,1.81C1695.14,270.42,1676.73,255.44,1676.85,280.91Z"/><path class="cls-24" d="M1701,43.53a22.37,22.37,0,0,0,44.73,0c0-12.35-10-22.89-22.36-22.36C1697.41,22.27,1714.82,46.08,1701,43.53Z"/><path class="cls-31" d="M1716.06,17.69c11.27-2.53,27.06-2.34,26.78-.9a23.71,23.71,0,0,1-8.37,45.32,20.89,20.89,0,0,0,.63-5.1,22.42,22.42,0,0,0-.24-3.2,6.37,6.37,0,0,0,3,.75,6.45,6.45,0,1,0-6-8.75c-.66-2.11-2.61-3.36-4.88-4.69-4-2.35-9-5-9.88-13.11-9.15,1-7.84,7.08-9.64,8C1704.73,28.34,1708.07,19.48,1716.06,17.69Z"/><path class="cls-30" d="M1780.69,133.05c-4.56-2.84-11.29-10.1-15.23-18.78-5.57-12.27-19-25.42-19-25.42-8.41-13.07,4.4-21.07,12.2-21.07,4.8,0,11.46,3.16,13.3,8.78l13.3,42.81C1790.09,131.73,1780.69,133.05,1780.69,133.05Z"/><path class="cls-30" d="M1687.45,123.26c-4-2.77-4.57-7.6,0-16,6.42-11.85,8.83-30.48,8.83-30.48,5.36-14.58,19.46-9.19,24.17-3,2.89,3.83,4.39,11,1,15.9l-20.67,29.72c-3.38,4.86-9.34,6.55-13.32,3.79Z"/><rect class="cls-32" x="1692.02" y="151.19" width="64.48" height="26.28"/><polygon class="cls-32" points="1693.66 168.33 1694.92 183.72 1757.02 180.09 1754.79 152.74 1693.66 168.33"/><polygon class="cls-32" points="1702.15 257.11 1712.3 255.86 1701.86 171.16 1686.52 173.05 1702.15 257.11"/><path class="cls-21" d="M1614.36,253.51l38.38,4,2.21-21-10.24-.52C1634.56,247.41,1620,228.67,1614.36,253.51Z"/><polygon class="cls-32" points="1656.23 167.14 1653.63 152.03 1718.46 151.04 1720.73 179.97 1656.23 167.14"/><polygon class="cls-32" points="1654.88 237.15 1644.71 236.07 1653.66 151.19 1669.03 152.81 1654.88 237.15"/><path class="cls-5" d="M1708,52.45h15.39C1724,59.32,1713.86,66.62,1708,52.45Z"/><polygon class="cls-10" points="1750.84 88.83 1747.39 138.28 1729.33 141.64 1723.38 150.46 1755.08 151.24 1756.35 101.98 1756.35 100 1750.84 88.83"/><polygon class="cls-30" points="1739.09 137.85 1781.2 115.25 1781.54 132.93 1739.03 145.2 1739.09 137.85"/><path class="cls-5" d="M1722.24,98.87h-82.58a1.16,1.16,0,0,0-1.16,1.15v51.19a1.16,1.16,0,0,0,1.16,1.15h82.58a1.15,1.15,0,0,0,1.15-1.15V100A1.15,1.15,0,0,0,1722.24,98.87Z"/><path class="cls-5" d="M1638.5,150.68v2.21a1.16,1.16,0,0,0,1.16,1.15h99.68a1.16,1.16,0,0,0,1.15-1.15v-2.21Z"/><path class="cls-33" d="M1683.09,127a7.6,7.6,0,0,1-6.74-11.11,7.6,7.6,0,1,0,7,11.1Z"/><path class="cls-24" d="M1725.34,148.92c-2.85,5.05-3.11-3.52-1.84-9.18s6-4.62,11.65-3.35,5.53-.21,6,5.64C1741.84,149.7,1728.31,143.68,1725.34,148.92Z"/><path class="cls-26" d="M1708.12,31.32c-.65-2.2-5.4-.14-5.4-2.56C1702.72,8.64,1718,0,1731.48,0a24.38,24.38,0,0,1,23.36,31.32Z"/><rect class="cls-7" x="1702.78" y="24.37" width="52.68" height="4.34"/><path class="cls-26" d="M1692.38,28.71a2.77,2.77,0,0,0,2.77,2.77h60.38a2.78,2.78,0,0,0,2.78-2.77h0a2.78,2.78,0,0,0-2.78-2.77h-60.38a2.77,2.77,0,0,0-2.77,2.77Z"/><path class="cls-34" d="M594.67,1135.44v31H493.57c-7.83,0-10.92,6.12-19.49,10.08s-23.33-6.22-28.41-.22l-42.09,49.46-.63.75q0-.49-.06-1.56t-.06-1.56V1103.46a28.13,28.13,0,0,1,28-28h40a28.13,28.13,0,0,1,28,28v4h68a28.15,28.15,0,0,1,28,28Z"/><path class="cls-11" d="M628.4,1163.7q0,3.87-3.88,8.24l-42,49.46q-5.37,6.38-15,10.81t-17.93,4.43H413.69a16.8,16.8,0,0,1-7.55-1.63,5.54,5.54,0,0,1-3.31-5.36c0-2.59,1.29-5.33,3.87-8.25l42-49.46q5.38-6.36,15.06-10.8t17.92-4.44H617.53a16.93,16.93,0,0,1,7.55,1.63A5.55,5.55,0,0,1,628.4,1163.7Z"/></g></g></g></svg>